<?xml version="1.0" standalone="no"?>
<!DOCTYPE svg PUBLIC "-//W3C//DTD SVG 1.1//EN" "http://www.w3.org/Graphics/SVG/1.1/DTD/svg11.dtd" >
<svg xmlns="http://www.w3.org/2000/svg">
<metadata></metadata>
<defs>
<font id="pauzafot_lightregular" horiz-adv-x="1000" >
<font-face units-per-em="1000" ascent="700" descent="-300" />
<missing-glyph horiz-adv-x="210" />
<glyph unicode=" "  horiz-adv-x="210" />
<glyph unicode="&#x09;" horiz-adv-x="210" />
<glyph unicode="&#xa0;" horiz-adv-x="210" />
<glyph unicode="!" horiz-adv-x="168" d="M101 154q0 -14 -14 -14h-6q-15 0 -15 14v356q0 15 15 15h6q14 0 14 -15v-356zM112 23q0 -10 -6.5 -16.5t-16.5 -6.5h-11q-10 0 -16.5 6.5t-6.5 16.5v11q0 10 6.5 16.5t15.5 6.5h12q10 0 16.5 -6.5t6.5 -16.5v-11z" />
<glyph unicode="&#x22;" horiz-adv-x="234" d="M201 468l-50 -152q-1 -6 -7.5 -9t-12.5 -1l-3 1q-15 6 -10 20l50 152q6 15 20 10l3 -1q15 -6 10 -20zM116 468l-50 -152q-6 -15 -20 -10l-3 1q-15 6 -10 20l50 152q1 6 7.5 9t12.5 1l3 -1q15 -6 10 -20z" />
<glyph unicode="#" horiz-adv-x="415" d="M382 154q0 -14 -14 -14h-56v-126q0 -14 -14 -14h-6q-15 0 -15 14v126h-140v-126q0 -14 -14 -14h-6q-15 0 -15 14l1 126h-56q-15 0 -15 14v6q0 6 4.5 10.5t10.5 4.5h56v140h-56q-15 0 -15 14v6q0 6 4.5 10.5t10.5 4.5h56l-1 125q0 6 4.5 10.5t10.5 4.5h6q14 0 14 -15v-125 h140v125q0 6 4.5 10.5t10.5 4.5h6q14 0 14 -15v-125h56q14 0 14 -15v-6q0 -14 -14 -14h-56v-140h56q14 0 14 -15v-6zM277 175v140h-140v-140h140z" />
<glyph unicode="$" horiz-adv-x="335" d="M300 121q0 -34 -30.5 -69t-80.5 -49v-57q0 -16 -16 -16h-3q-16 0 -16 16v55q-51 7 -81.5 31t-39.5 49q-6 15 5 19l6 3q15 9 22 -9q16 -42 88 -60v224l-55 32q-50 28 -50 105q0 35 36 64.5t69 29.5v55q0 16 16 16h3q16 0 16 -16v-55q39 0 80 -41q6 -7 7 -14.5t-4 -11.5 l-8 -6q-8 -6 -21 7q-17 19 -54 31v-175l47 -27q64 -34 64 -131zM154 298v155q-25 -2 -47.5 -20.5t-22.5 -46.5q0 -23 7.5 -38t16 -21.5t24.5 -15.5zM265 123q0 17 -2.5 31.5t-8 25t-10 18t-14 15t-13.5 10t-15 8.5t-13 7v-198q21 5 48.5 30.5t27.5 52.5z" />
<glyph unicode="%" horiz-adv-x="459" d="M174 359q0 -24 -17 -41t-41 -17t-41 17t-17 41v73q0 24 17 41t41 17t41 -17t17 -41v-73zM401 58q0 -24 -17 -41t-41 -17t-41 17t-17 41v73q0 24 17 41t41 17t41 -17t17 -41v-73zM148 357v77q0 13 -9.5 22t-22.5 9t-22.5 -9t-9.5 -22v-77q0 -13 9.5 -22.5t22.5 -9.5 t22.5 9.5t9.5 22.5zM375 56v77q0 13 -9.5 22.5t-22.5 9.5t-22.5 -9.5t-9.5 -22.5v-77q0 -13 9.5 -22t22.5 -9t22.5 9t9.5 22zM344 468l-184 -460q-5 -12 -19 -8l-6 2q-12 5 -8 18l184 460q5 14 19 9l7 -3q12 -6 7 -18z" />
<glyph unicode="&#x26;" horiz-adv-x="620" d="M553 315q0 -50 -17.5 -106t-51.5 -96l68 -82q9 -12 0 -22l-3 -4q-4 -5 -12.5 -5t-10.5 4l-67 82q-56 -53 -92 -72.5t-101 -19.5q-91 0 -140 58t-49 148q0 46 18 82t45.5 60.5t80.5 59.5q-31 38 -42.5 52.5t-27 49t-15.5 65.5q0 56 39 93.5t100 37.5q59 0 97.5 -37.5 t38.5 -94.5q0 -74 -70 -121l-69 -46l191 -263q55 85 55 177q0 15 14 15h6q6 0 10.5 -4.5t4.5 -10.5zM376 568q0 43 -29 72.5t-72 29.5q-44 0 -71.5 -28.5t-27.5 -71.5q0 -54 77 -148l52 34q29 18 50 47.5t21 64.5zM438 110l-198 272q-63 -44 -93.5 -84.5t-30.5 -97.5 q0 -73 39 -123.5t110 -50.5q45 0 81.5 17t91.5 67z" />
<glyph unicode="'" horiz-adv-x="143" d="M109 451l-43 -121q-3 -13 -18 -9l-6 2q-12 5 -9 19l43 121q5 12 19 9l5 -2q14 -5 9 -19z" />
<glyph unicode="(" horiz-adv-x="210" d="M172 550q9 -12 -1 -22q-29 -27 -54 -106.5t-25 -176.5q0 -98 25 -177.5t54 -106.5q10 -10 1 -22l-4 -4q-8 -12 -20 -2q-33 31 -62 111t-29 201q0 120 29 200t62 111q12 10 20 -2z" />
<glyph unicode=")" horiz-adv-x="210" d="M153 245q0 -121 -29 -201t-61 -111q-12 -10 -21 2l-4 4q-9 12 1 22q29 27 54 106.5t25 177.5q0 97 -25 176.5t-54 106.5q-10 10 -1 22l4 4q9 12 21 2q32 -31 61 -111t29 -200z" />
<glyph unicode="*" horiz-adv-x="281" d="M263 410l2 -6q5 -12 -10 -16l-89 -27l56 -70q8 -11 -3 -18l-3 -3q-12 -7 -21 1l-54 72l-56 -71q-7 -10 -20 -2l-3 3q-11 7 -3 18l55 70l-89 27q-5 2 -8 7t-1 10l2 4q4 12 17 9l89 -28v87q0 5 4 9.5t10 4.5h5q13 0 13 -14v-87l90 28q14 4 17 -8z" />
<glyph unicode="+" horiz-adv-x="480" d="M420 242q0 -15 -14 -15h-148v-148q0 -14 -14 -14h-7q-14 0 -14 14v148h-148q-6 0 -10.5 4.5t-4.5 10.5v6q0 14 15 14h148v148q0 15 14 15h7q14 0 14 -15v-148h148q14 0 14 -14v-6z" />
<glyph unicode="," horiz-adv-x="156" d="M116 65l-50 -152q-6 -15 -20 -10l-3 1q-15 6 -10 20l50 152q4 16 20 10l3 -1q15 -6 10 -20z" />
<glyph unicode="-" horiz-adv-x="320" d="M282 259q0 -14 -14 -14h-216q-15 0 -15 14v6q0 6 4.5 10.5t10.5 4.5h216q14 0 14 -15v-6z" />
<glyph unicode="." horiz-adv-x="147" d="M104 23q0 -10 -6.5 -16.5t-15.5 -6.5h-12q-10 0 -16.5 6.5t-6.5 16.5v11q0 10 6.5 16.5t16.5 6.5h12q9 0 15.5 -6.5t6.5 -16.5v-11z" />
<glyph unicode="/" horiz-adv-x="286" d="M266 539l-213 -600q-1 -5 -7 -7.5t-11 -0.5l-6 2q-13 4 -9 18l213 600q2 5 7.5 7.5t10.5 0.5l6 -2q13 -4 9 -18z" />
<glyph unicode="0" horiz-adv-x="395" d="M337 140q0 -58 -40.5 -99t-98.5 -41t-99.5 41t-41.5 99v227q0 58 41 99t99 41q59 0 99.5 -40.5t40.5 -99.5v-227zM302 140v227q0 43 -31 74t-74 31t-73.5 -31t-30.5 -74v-227q0 -43 30.5 -74t73.5 -31t74 30.5t31 74.5z" />
<glyph unicode="1" horiz-adv-x="259" d="M182 14q0 -14 -15 -14h-6q-14 0 -14 14v442l-62 -50q-11 -9 -20 2l-4 4q-9 12 2 21l88 71q3 3 10 3h6q15 0 15 -14v-479z" />
<glyph unicode="2" horiz-adv-x="395" d="M346 14q0 -14 -14 -14h-269q-14 0 -14 14v6q0 4 6 10l6 7l201 255q32 40 32 75q0 43 -31 74t-74 31q-41 0 -69 -26t-34 -59q-4 -18 -13 -18l-11 2q-14 0 -11 21q10 49 48.5 82t89.5 33q58 0 99 -41t41 -99q0 -43 -46 -104l-172 -228h221q14 0 14 -15v-6z" />
<glyph unicode="3" horiz-adv-x="395" d="M337 143q0 -61 -41.5 -102t-99.5 -41q-46 0 -87.5 31.5t-50.5 89.5q-1 9 3.5 13t9.5 4h6q13 0 16 -18q8 -37 37.5 -61t66.5 -24q44 0 74.5 30t30.5 78q0 53 -32 82t-67 29h-30q-14 0 -14 15v6q0 14 14 14h26q34 0 59.5 28t25.5 63q0 39 -27 65.5t-64 26.5 q-32 0 -55.5 -19t-31.5 -42q-3 -12 -17 -7l-9 3q-11 5 -5 21q36 79 118 79q52 0 89 -36.5t37 -91.5q0 -64 -58 -105q76 -43 76 -131z" />
<glyph unicode="4" horiz-adv-x="395" d="M346 119q0 -14 -14 -14h-56v-91q0 -14 -14 -14h-6q-15 0 -15 14v91h-178q-7 0 -11.5 7.5t-2.5 13.5l160 370q6 15 18 9l8 -3q11 -6 6 -21l-146 -341h146v108q0 14 15 14h6q14 0 14 -14v-108h56q14 0 14 -15v-6z" />
<glyph unicode="5" horiz-adv-x="395" d="M330 140q0 -58 -41 -99t-99 -41q-46 0 -83.5 25t-48.5 50q-6 14 4 19l7 5q13 8 21 -10t37 -36t63 -18q44 0 74.5 30.5t30.5 74.5v61q0 44 -30 74.5t-73 30.5q-31 0 -57 -15.5t-37 -40.5q-5 -10 -12 -10h-6q-6 0 -10.5 4.5t-4.5 10.5v234q0 14 15 14h211q15 0 15 -14v-6 q0 -6 -4.5 -10.5t-10.5 -4.5h-191v-160q39 33 92 33q57 0 97.5 -41t40.5 -99v-61z" />
<glyph unicode="6" horiz-adv-x="395" d="M337 140q0 -58 -40.5 -99t-98.5 -41q-60 0 -100 41.5t-40 96.5q0 4 -0.5 22t0 25.5t1.5 21.5t4.5 25t8.5 22l117 247q6 12 20 5l5 -3q11 -7 5 -21l-87 -176q1 0 10 4.5t14.5 6.5t17 4t24.5 2q56 0 97.5 -40.5t41.5 -99.5v-43zM302 140v43q0 43 -31 74t-74 31t-73.5 -31 t-30.5 -74v-43q0 -43 30.5 -74t73.5 -31t74 30.5t31 74.5z" />
<glyph unicode="7" horiz-adv-x="395" d="M338 465v-3l-1 -1l-143 -455q-4 -11 -20 -4l-8 3q-1 0 -2.5 2t-2 6t0.5 10l141 445h-211v-58q0 -14 -14 -14h-6q-15 0 -15 14v79q0 14 15 14h251q15 0 15 -14v-24z" />
<glyph unicode="8" horiz-adv-x="395" d="M337 147q0 -62 -40.5 -104.5t-98.5 -42.5q-60 0 -100 42t-40 100q0 84 73 131q-26 15 -43 45t-17 62q0 52 37.5 89.5t89.5 37.5t89.5 -37t37.5 -89q0 -69 -61 -108q30 -15 51.5 -48.5t21.5 -77.5zM289 381l1 -1q0 38 -27 65t-65 27t-65 -26.5t-27 -64.5t27 -65t65 -27 t64.5 27t26.5 65zM302 147q0 47 -31.5 77t-72.5 30q-44 0 -74.5 -31.5t-30.5 -79.5q0 -45 29.5 -76.5t75.5 -31.5q45 0 74.5 31t29.5 81z" />
<glyph unicode="9" horiz-adv-x="395" d="M337 369q0 -4 0.5 -21.5t0 -25t-1.5 -22t-4.5 -25.5t-8.5 -22l-117 -247q-7 -12 -20 -5l-5 3q-11 7 -5 21l87 177q-36 -18 -66 -18q-56 0 -97.5 40.5t-41.5 99.5v44q0 58 40.5 99t98.5 41q60 0 100 -42t40 -97zM302 324v43q0 43 -30.5 74t-73.5 31q-44 0 -74.5 -31 t-30.5 -74v-43q0 -44 30.5 -74.5t74.5 -30.5q43 0 73.5 31t30.5 74z" />
<glyph unicode=":" horiz-adv-x="147" d="M104 256q0 -10 -6.5 -16.5t-15.5 -6.5h-12q-10 0 -16.5 6.5t-6.5 16.5v11q0 10 6.5 16.5t16.5 6.5h12q9 0 15.5 -6.5t6.5 -15.5v-12zM104 23q0 -10 -6.5 -16.5t-15.5 -6.5h-12q-10 0 -16.5 6.5t-6.5 16.5v11q0 10 6.5 16.5t16.5 6.5h12q9 0 15.5 -6.5t6.5 -16.5v-11z" />
<glyph unicode=";" horiz-adv-x="149" d="M113 256q0 -10 -6.5 -16.5t-15.5 -6.5h-12q-10 0 -16.5 6.5t-6.5 16.5v11q0 10 6.5 16.5t16.5 6.5h12q9 0 15.5 -6.5t6.5 -15.5v-12zM112 65l-50 -152q-2 -6 -8 -9t-12 -1l-3 1q-15 6 -10 20l50 152q5 16 20 10l3 -1q15 -6 10 -20z" />
<glyph unicode="&#x3c;" horiz-adv-x="541" d="M499 259q0 -14 -15 -14h-398l133 -122q9 -10 2 -20l-4 -5q-10 -12 -21 -2l-167 154q-9 8 -9 13t9 12l167 154q11 10 21 -2l4 -5q7 -10 -2 -20l-133 -122h398q6 0 10.5 -4.5t4.5 -10.5v-6z" />
<glyph unicode="=" horiz-adv-x="320" d="M282 312q0 -15 -14 -15h-216q-6 0 -10.5 4.5t-4.5 10.5v6q0 14 15 14h216q14 0 14 -14v-6zM282 207q0 -15 -14 -15h-216q-6 0 -10.5 4.5t-4.5 10.5v6q0 14 15 14h216q14 0 14 -14v-6z" />
<glyph unicode="&#x3e;" horiz-adv-x="541" d="M512 250l-167 -154q-11 -10 -21 2l-4 5q-8 10 2 20l133 122h-398q-15 0 -15 14v6q0 6 4.5 10.5t10.5 4.5h398l-133 122q-10 10 -2 20l4 5q10 12 21 2l167 -154q9 -7 9 -12t-9 -13z" />
<glyph unicode="?" horiz-adv-x="322" d="M299 385q0 -59 -43.5 -99.5t-113.5 -40.5v-91q0 -14 -15 -14h-6q-14 0 -14 14v111q0 15 14 15h38q43 0 74 31t31 74t-31 74t-74 31t-73.5 -30.5t-30.5 -74.5q0 -6 -4.5 -10.5t-10.5 -4.5h-6q-6 0 -10.5 4.5t-4.5 10.5q0 58 41 99t99 41t99 -41t41 -99zM152 23 q0 -10 -6.5 -16.5t-15.5 -6.5h-12q-9 0 -15.5 6.5t-6.5 16.5v11q0 10 6.5 16.5t15.5 6.5h12q9 0 15.5 -6.5t6.5 -16.5v-11z" />
<glyph unicode="@" horiz-adv-x="774" d="M702 578l-1 -456q0 -51 -35.5 -86.5t-86.5 -35.5h-75q-14 0 -14 14v55l-5 -7.5t-15 -16.5t-25.5 -21t-36 -16.5t-47.5 -7.5q-46 0 -80 37t-34 82v266q0 43 30.5 74t74.5 31h160q6 0 10.5 -4.5t4.5 -10.5v-440h51q36 0 62 25.5t26 61.5v455q0 37 -25 62.5t-61 25.5h-350 q-51 0 -87 -36t-36 -87v-630q0 -21 15 -36.5t37 -15.5h388q15 0 15 -15v-6q0 -14 -15 -14h-388q-36 0 -61.5 25.5t-25.5 61.5v630q0 65 46 111.5t111 46.5h351q50 0 86 -36t36 -86zM492 157v298h-140q-29 0 -49.5 -20.5t-20.5 -49.5v-270q0 -30 26.5 -55t56.5 -25 q53 0 90 33t37 89z" />
<glyph unicode="A" horiz-adv-x="422" d="M412 18q4 -11 -11 -16l-6 -2q-15 -2 -18 12l-54 215h-224l-54 -215q-3 -14 -18 -12l-6 2q-15 5 -11 16l184 671q3 12 17 12q15 0 18 -12zM313 262l-72 262l-30 131l-30 -131l-72 -262h204z" />
<glyph unicode="B" horiz-adv-x="558" d="M485 122q0 -50 -36 -86t-86 -36h-249q-14 0 -14 14v671q0 15 14 15h179q65 0 111 -46.5t46 -111.5q0 -41 -25.5 -81.5t-70.5 -48.5q65 -10 98 -54t33 -96v-140zM415 542q0 51 -36 87t-86 36h-158v-245h158q50 0 86 36t36 86zM450 122v140q0 51 -36 87t-86 36h-193v-350 h228q36 0 61.5 25.5t25.5 61.5z" />
<glyph unicode="C" horiz-adv-x="470" d="M423 14q0 -14 -14 -14h-214q-50 0 -86 36t-36 86v420q0 66 46 112t111 46h179q14 0 14 -15v-6q0 -14 -14 -14h-179q-50 0 -86 -36t-36 -87v-420q0 -36 25.5 -61.5t61.5 -25.5h214q14 0 14 -15v-6z" />
<glyph unicode="D" horiz-adv-x="558" d="M485 122q0 -50 -36 -86t-86 -36h-249q-14 0 -14 14v671q0 15 14 15h213q66 0 112 -46.5t46 -111.5v-420zM450 122v420q0 51 -36 87t-86 36h-193v-630h228q36 0 61.5 25.5t25.5 61.5z" />
<glyph unicode="E" horiz-adv-x="500" d="M450 14q0 -14 -14 -14h-322q-14 0 -14 14v671q0 15 14 15h321q15 0 15 -15v-6q0 -14 -14 -14h-301v-245h266q14 0 14 -15v-6q0 -14 -14 -14h-266v-350h301q14 0 14 -15v-6z" />
<glyph unicode="F" horiz-adv-x="483" d="M450 679q0 -14 -15 -14h-300v-245h231q14 0 14 -15v-6q0 -14 -14 -14h-231v-371q0 -14 -15 -14h-6q-14 0 -14 14v671q0 15 14 15h321q15 0 15 -15v-6z" />
<glyph unicode="G" horiz-adv-x="538" d="M461 14q0 -14 -14 -14h-249q-50 0 -86 36t-36 86v420q0 66 46 112t111 46h213q15 0 15 -15v-6q0 -14 -15 -14h-213q-50 0 -86 -36t-36 -87v-420q0 -36 25.5 -61.5t61.5 -25.5h228v350h-125q-15 0 -15 14v6q0 15 15 15h146q14 0 14 -15v-391z" />
<glyph unicode="H" horiz-adv-x="585" d="M485 14q0 -14 -14 -14h-7q-14 0 -14 14v371h-315v-371q0 -14 -15 -14h-6q-14 0 -14 14v671q0 15 14 15h6q15 0 15 -15v-265h315v265q0 15 14 15h7q14 0 14 -15v-671z" />
<glyph unicode="I" horiz-adv-x="235" d="M135 14q0 -14 -15 -14h-6q-14 0 -14 14v671q0 15 14 15h6q15 0 15 -15v-671z" />
<glyph unicode="J" horiz-adv-x="355" d="M265 192q0 -80 -56.5 -136t-135.5 -56h-39q-14 0 -14 14v6q0 15 15 15h38q65 0 111 46.5t46 110.5v493q0 15 14 15h6q15 0 15 -15v-493z" />
<glyph unicode="K" horiz-adv-x="509" d="M499 28q8 -13 -2 -21l-5 -4q-12 -8 -20 2l-255 390l-82 -87v-294q0 -14 -15 -14h-6q-14 0 -14 14v671q0 15 14 15h6q15 0 15 -15v-326l321 337q8 8 20 0l5 -4q11 -10 0 -21l-239 -251z" />
<glyph unicode="L" horiz-adv-x="477" d="M450 14q0 -14 -14 -14h-322q-14 0 -14 14v671q0 15 14 15h7q14 0 14 -15v-650h301q14 0 14 -15v-6z" />
<glyph unicode="M" horiz-adv-x="618" d="M518 14q0 -14 -15 -14h-6q-14 0 -14 14v610l-144 -234q-11 -19 -31 -19q-18 0 -29 19l-145 232v-608q0 -14 -13 -14h-7q-14 0 -14 14v671q0 15 14 15h4q7 0 15 -13l175 -282l176 282q8 13 16 13h3q6 0 10.5 -4.5t4.5 -10.5v-671z" />
<glyph unicode="N" horiz-adv-x="571" d="M471 14q0 -14 -15 -14h-4q-11 0 -14 8l-303 599v-593q0 -14 -14 -14h-6q-15 0 -15 14v671q0 6 4.5 10.5t10.5 4.5h6q8 0 12 -8l303 -598v591q0 15 14 15h6q15 0 15 -15v-671z" />
<glyph unicode="O" horiz-adv-x="531" d="M458 157q0 -65 -46 -111t-111 -46h-71q-65 0 -111 46t-46 111v385q0 65 46 111.5t111 46.5h71q65 0 111 -46.5t46 -111.5v-385zM423 157v385q0 51 -36 87t-86 36h-70q-51 0 -87 -36t-36 -87v-385q0 -50 36 -86t86 -36h71q50 0 86 36t36 86z" />
<glyph unicode="P" horiz-adv-x="524" d="M485 472q0 -64 -46.5 -110.5t-110.5 -46.5h-193v-301q0 -14 -14 -14h-7q-14 0 -14 14v671q0 15 14 15h214q65 0 111 -46.5t46 -111.5v-70zM450 472v70q0 51 -36 87t-86 36h-193v-315h193q50 0 86 36t36 86z" />
<glyph unicode="Q" horiz-adv-x="564" d="M521 -26l-4 -5q-10 -11 -21 0l-84 79q-55 -48 -114 -48h-71q-65 0 -111 46t-46 111v385q0 65 46 111.5t111 46.5h71q65 0 111 -46.5t46 -111.5v-385q0 -51 -22 -80l88 -83q8 -8 0 -20zM420 157v385q0 51 -36 87t-86 36h-70q-51 0 -87 -36t-36 -87v-385q0 -50 36 -86 t87 -36h70q41 0 90 37l-78 73q-10 11 0 21l4 4q11 11 20 0l76 -71q10 31 10 58z" />
<glyph unicode="R" horiz-adv-x="548" d="M497 28q8 -13 -2 -21l-5 -4q-13 -9 -20 2l-200 310h-135v-301q0 -14 -14 -14h-7q-14 0 -14 14v671q0 15 14 15h214q65 0 111 -46.5t46 -111.5v-70q0 -64 -47 -111.5t-124 -47.5zM450 472v70q0 51 -36 87t-86 36h-193v-315h193q50 0 86 36t36 86z" />
<glyph unicode="S" horiz-adv-x="473" d="M420 157q0 -64 -55.5 -110.5t-136.5 -46.5h-20q-89 0 -149 57l-20 19q-9 9 0 20l4 5q9 12 21 0l21 -21q45 -45 123 -45h20q63 0 110 34.5t47 87.5q0 47 -50 90l-227 199q-64 56 -64 109q0 62 53 103.5t135 41.5h11q84 0 144 -57l20 -19q10 -8 0 -20l-4 -5q-8 -10 -20 0 l-22 21q-47 45 -118 45h-11q-64 0 -108.5 -28.5t-44.5 -81.5q0 -18 8 -34t16.5 -24t25.5 -23l227 -199q64 -57 64 -118z" />
<glyph unicode="T" horiz-adv-x="439" d="M412 679q0 -14 -14 -14h-161v-651q0 -14 -14 -14h-6q-15 0 -15 14v651h-161q-14 0 -14 14v6q0 15 14 15h357q14 0 14 -15v-6z" />
<glyph unicode="U" horiz-adv-x="565" d="M475 192q0 -80 -56.5 -136t-136.5 -56t-136 56t-56 136v493q0 15 14 15h7q14 0 14 -15v-493q0 -65 46 -111t111 -46t111.5 46t46.5 111v493q0 6 4.5 10.5t10.5 4.5h6q14 0 14 -15v-493z" />
<glyph unicode="V" horiz-adv-x="446" d="M441 683l-200 -671q-5 -12 -18 -12q-14 0 -17 12l-201 671q-4 13 11 16l6 2q12 2 17 -12l154 -531l30 -112l31 112l153 531q5 14 17 12l6 -2q15 -3 11 -16z" />
<glyph unicode="W" horiz-adv-x="631" d="M623 681l-143 -670q-2 -11 -17 -11q-13 0 -18 12l-129 401l-130 -401q-3 -12 -17 -12t-18 11l-143 670q-2 14 11 18l6 2q15 2 17 -11l130 -622l117 384q6 21 26 21q18 0 25 -21l118 -384l131 622q4 13 18 11l5 -2q14 -4 11 -18z" />
<glyph unicode="X" horiz-adv-x="483" d="M473 27q7 -12 -4 -21l-4 -3q-12 -9 -20 3l-204 312l-203 -312q-7 -10 -20 -3l-5 3q-11 8 -3 21l210 323l-210 323q-10 14 3 21l5 3q13 7 20 -3l203 -312l204 312q8 12 20 3l4 -3q13 -9 4 -21l-211 -323z" />
<glyph unicode="Y" horiz-adv-x="454" d="M449 673l-204 -312v-347q0 -14 -15 -14h-6q-14 0 -14 14v348l-205 311q-8 12 3 21l5 3q13 7 20 -3l194 -295l194 295q7 10 20 3l5 -3q11 -9 3 -21z" />
<glyph unicode="Z" horiz-adv-x="491" d="M438 14q0 -14 -14 -14h-350q-6 0 -14 5q-12 8 -5 20l336 640h-324q-14 0 -14 15v6q0 14 14 14h353q4 0 11 -5q12 -7 5 -20l-335 -640h323q14 0 14 -15v-6z" />
<glyph unicode="[" horiz-adv-x="217" d="M198 -126q0 -14 -15 -14h-111q-15 0 -15 14v741q0 6 4.5 10.5t10.5 4.5h111q6 0 10.5 -4.5t4.5 -10.5v-6q0 -14 -15 -14h-90v-700h90q15 0 15 -15v-6z" />
<glyph unicode="\" horiz-adv-x="286" d="M233 -61l-213 600q-4 14 9 18l6 2q5 2 11 -0.5t7 -7.5l213 -600q4 -14 -9 -18l-6 -2q-5 -2 -10.5 0.5t-7.5 7.5z" />
<glyph unicode="]" horiz-adv-x="217" d="M160 -126q0 -14 -15 -14h-111q-15 0 -15 14v6q0 15 15 15h90v700h-90q-15 0 -15 14v6q0 6 4.5 10.5t10.5 4.5h111q6 0 10.5 -4.5t4.5 -10.5v-741z" />
<glyph unicode="^" horiz-adv-x="479" d="M412 474q7 -11 -3 -17q-9 -7 -16 4l-154 223l-153 -223q-7 -11 -16 -4q-10 6 -3 17l161 233q4 9 11 9q6 0 12 -9z" />
<glyph unicode="_" horiz-adv-x="459" d="M459 -99q0 -12 -12 -12h-434q-5 0 -9 3.5t-4 8.5q0 11 13 11h434q12 0 12 -11z" />
<glyph unicode="`" horiz-adv-x="381" d="M251 620q8 -10 -2 -20l-1 -1q-12 -9 -20 1l-108 129q-10 12 2 20l1 1q11 9 21 -1z" />
<glyph unicode="a" horiz-adv-x="443" d="M362 14q0 -14 -15 -14h-195q-44 0 -74.5 31t-30.5 74v70q0 43 30.5 74t74.5 31h175v87q0 37 -25.5 62.5t-62.5 25.5h-143q-14 0 -14 14v6q0 15 14 15h143q51 0 87 -36t36 -87v-353zM327 35v210h-175q-29 0 -49.5 -20.5t-20.5 -49.5v-70q0 -29 20.5 -49.5t49.5 -20.5h175z " />
<glyph unicode="b" horiz-adv-x="463" d="M402 105q0 -43 -31 -74t-74 -31h-196q-14 0 -14 14v671q0 15 14 15h7q14 0 14 -15v-195h157q51 0 87 -36t36 -87v-262zM367 105v262q0 37 -25.5 62.5t-62.5 25.5h-157v-420h175q29 0 49.5 20.5t20.5 49.5z" />
<glyph unicode="c" horiz-adv-x="380" d="M339 14q0 -14 -15 -14h-178q-36 0 -61.5 25.5t-25.5 61.5v280q0 51 36 87t86 36h143q15 0 15 -15v-6q0 -14 -15 -14h-142q-37 0 -62.5 -25.5t-25.5 -62.5v-280q0 -22 15.5 -37t36.5 -15h178q15 0 15 -15v-6z" />
<glyph unicode="d" horiz-adv-x="459" d="M374 14q0 -14 -15 -14h-195q-44 0 -74.5 31t-30.5 74v262q0 51 36 87t86 36h158v195q0 15 14 15h6q15 0 15 -15v-671zM339 35v420h-158q-36 0 -61.5 -25.5t-25.5 -62.5v-262q0 -29 20.5 -49.5t49.5 -20.5h175z" />
<glyph unicode="e" horiz-adv-x="451" d="M392 260q-2 -15 -15 -15h-283v-123q0 -36 25.5 -61.5t62.5 -25.5h178q14 0 14 -15v-6q0 -14 -14 -14h-178q-51 0 -87 36t-36 86v211q0 65 46.5 111t111.5 46h17q65 0 111.5 -46t46.5 -111v-73zM357 280v53q0 50 -36 86t-87 36h-17q-51 0 -87 -36t-36 -86v-53h263z" />
<glyph unicode="f" horiz-adv-x="311" d="M284 469q0 -14 -14 -14h-126v-441q0 -14 -14 -14h-7q-14 0 -14 14v441h-56q-14 0 -14 14v6q0 15 14 15h56v87q0 51 36 87t86 36h39q14 0 14 -15v-6q0 -14 -14 -14h-38q-37 0 -62.5 -25.5t-25.5 -62.5v-87h126q14 0 14 -15v-6z" />
<glyph unicode="g" horiz-adv-x="452" d="M365 -53q0 -50 -36 -86t-86 -36h-134q-15 0 -15 14v6q0 15 15 15h134q36 0 61.5 25.5t25.5 61.5v53h-184q-36 0 -61.5 25.5t-25.5 61.5v280q0 51 36 87t86 36h170q14 0 14 -15v-528zM330 35v420h-148q-37 0 -62.5 -25.5t-25.5 -62.5v-280q0 -22 15.5 -37t36.5 -15h184z " />
<glyph unicode="h" horiz-adv-x="481" d="M400 14q0 -14 -14 -14h-6q-15 0 -15 14v353q0 37 -25.5 62.5t-61.5 25.5h-158v-441q0 -14 -14 -14h-7q-14 0 -14 14v671q0 15 14 15h7q14 0 14 -15v-195h158q50 0 86 -36t36 -87v-353z" />
<glyph unicode="i" horiz-adv-x="202" d="M127 670q0 -9 -6.5 -15.5t-16.5 -6.5h-6q-10 0 -16.5 6.5t-6.5 15.5v7q0 9 6.5 15.5t16.5 6.5h6q10 0 16.5 -6.5t6.5 -15.5v-7zM119 14q0 -14 -15 -14h-6q-14 0 -14 14v461q0 15 14 15h6q6 0 10.5 -4.5t4.5 -10.5v-461z" />
<glyph unicode="j" horiz-adv-x="239" d="M164 671q0 -9 -6.5 -15.5t-15.5 -6.5h-7q-9 0 -15.5 6.5t-6.5 15.5v7q0 9 6.5 15.5t15.5 6.5h7q9 0 15.5 -6.5t6.5 -15.5v-7zM156 -53q0 -50 -36 -86t-87 -36h-38q-14 0 -14 14v6q0 15 14 15h38q37 0 62.5 25.5t25.5 61.5v528q0 15 14 15h6q15 0 15 -15v-528z" />
<glyph unicode="k" horiz-adv-x="436" d="M407 25q7 -15 -6 -20l-5 -3q-6 -3 -11.5 -1.5t-7.5 6.5l-145 327l-112 -87v-233q0 -14 -14 -14h-7q-14 0 -14 14v671q0 15 14 15h7q14 0 14 -15v-394l253 196q11 9 20 -3l4 -4q9 -12 -3 -21l-134 -103z" />
<glyph unicode="l" horiz-adv-x="217" d="M188 14q0 -14 -15 -14h-3q-36 0 -61.5 25.5t-25.5 61.5v598q0 15 14 15h7q14 0 14 -15v-598q0 -22 15.5 -37t37.5 -15h3q14 0 14 -15v-6z" />
<glyph unicode="m" horiz-adv-x="619" d="M540 14q0 -14 -14 -14h-6q-15 0 -15 14v353q0 37 -25.5 62.5t-61.5 25.5h-88v-441q0 -14 -14 -14h-6q-15 0 -15 14v441h-175v-441q0 -14 -14 -14h-7q-14 0 -14 14v461q0 15 14 15h319q50 0 86 -36t36 -87v-353z" />
<glyph unicode="n" horiz-adv-x="479" d="M400 14q0 -14 -15 -14h-6q-14 0 -14 14v353q0 37 -25.5 62.5t-62.5 25.5h-157v-441q0 -14 -14 -14h-7q-14 0 -14 14v461q0 15 14 15h178q51 0 87 -36t36 -87v-353z" />
<glyph unicode="o" horiz-adv-x="451" d="M392 158q0 -66 -46.5 -112t-111.5 -46h-18q-65 0 -111 46t-46 111v176q0 65 46.5 111t111.5 46h17q65 0 111.5 -46t46.5 -111v-175zM357 157v176q0 50 -36 86t-87 36h-17q-51 0 -87 -36t-36 -86v-176q0 -50 36 -86t87 -36h17q51 0 87 36t36 86z" />
<glyph unicode="p" horiz-adv-x="450" d="M391 87q0 -36 -25.5 -61.5t-61.5 -25.5h-184v-161q0 -14 -14 -14h-7q-14 0 -14 14v636q0 15 14 15h170q50 0 86 -36t36 -87v-280zM356 87v280q0 37 -25.5 62.5t-61.5 25.5h-149v-420h184q22 0 37 15t15 37z" />
<glyph unicode="q" horiz-adv-x="448" d="M363 -161q0 -14 -14 -14h-6q-15 0 -15 14v161h-184q-36 0 -61.5 25.5t-25.5 61.5v280q0 51 36 87t86 36h170q14 0 14 -15v-636zM328 35v420h-148q-37 0 -62.5 -25.5t-25.5 -62.5v-280q0 -22 15.5 -37t36.5 -15h184z" />
<glyph unicode="r" horiz-adv-x="365" d="M365 469q0 -14 -14 -14h-81q-33 0 -70.5 -23.5t-58.5 -47.5l-21 -24v-346q0 -14 -14 -14h-7q-14 0 -14 14v461q0 15 14 15h4q15 0 15 -14l-1 -68l50 41q48 41 103 41h81q14 0 14 -15v-6z" />
<glyph unicode="s" horiz-adv-x="397" d="M350 91q0 -38 -37 -64.5t-85 -26.5h-71q-64 0 -100 52l-18 27q-9 10 3 20l5 3q13 7 20 -3l19 -27q26 -37 71 -37h72q28 0 57.5 17t29.5 39q0 30 -7 42t-39 37l-184 144q-41 32 -41 72q0 47 36.5 75.5t85.5 28.5h53q65 0 101 -52l18 -27q9 -10 -3 -20l-5 -3q-13 -7 -20 3 l-19 27q-26 37 -72 37h-54q-30 0 -56.5 -18t-26.5 -51q0 -13 3.5 -20.5t6 -10t16.5 -13.5l201 -160q40 -32 40 -91z" />
<glyph unicode="t" horiz-adv-x="329" d="M282 15q0 -15 -14 -15h-38q-51 0 -87 36t-36 87v332h-56q-14 0 -14 15v6q0 14 14 14h56v195q0 15 14 15h7q14 0 14 -15v-195h126q14 0 14 -14v-6q0 -15 -15 -15h-125v-332q0 -37 25.5 -62.5t62.5 -25.5h38q14 0 14 -14v-6z" />
<glyph unicode="u" horiz-adv-x="479" d="M394 14q0 -14 -15 -14h-178q-50 0 -86 36t-36 86v353q0 15 14 15h7q14 0 14 -15v-353q0 -36 25.5 -61.5t61.5 -25.5h158v440q0 15 14 15h6q15 0 15 -15v-461z" />
<glyph unicode="v" horiz-adv-x="345" d="M338 467l-143 -459q-2 -9 -22 -9q-21 0 -23 9l-143 459q-5 13 9 19l6 1q14 5 18 -9l133 -450l132 450q4 14 18 9l6 -1q14 -5 9 -19z" />
<glyph unicode="w" horiz-adv-x="468" d="M461 466l-89 -454q0 -3 -4 -6t-8 -4l-3 -2l-16 3q-6 3 -14 24l-92 228l-93 -228q-10 -24 -15 -24l-16 -3q-3 -1 -8.5 2.5t-6.5 9.5l-89 454q-3 16 9 20l6 1q6 2 11.5 -0.5t6.5 -6.5q64 -355 81 -436l89 224q15 39 25 39q11 0 24 -39q55 -143 85 -222q10 35 31 143.5 t37 199.5l17 91q1 4 6 6.5t12 0.5l5 -1q14 -2 9 -20z" />
<glyph unicode="x" horiz-adv-x="378" d="M353 27q8 -13 -3 -21l-5 -3q-13 -7 -20 3l-136 208l-136 -208q-7 -10 -20 -3l-5 3q-11 8 -3 21l143 219l-143 219q-8 13 4 20l5 3q11 9 19 -3l136 -207l135 207q7 10 20 3l5 -3q12 -8 3 -20l-142 -219z" />
<glyph unicode="y" horiz-adv-x="358" d="M351 469l-182 -583q-11 -35 -43 -51.5t-66 -5.5l-3 1q-14 5 -10 18l2 6q5 13 18 9l3 -1q21 -7 40.5 3.5t25.5 31.5l38 130l-163 440q-5 15 8 20l5 2q15 6 19 -7l148 -414l127 412q4 13 18 9l5 -2q14 -3 10 -18z" />
<glyph unicode="z" horiz-adv-x="399" d="M358 14q0 -14 -14 -14h-276h-3q-7 0 -16 6q-11 8 -3 21l261 428h-250q-14 0 -14 14v6q0 15 14 15h276q9 3 14 -2l5 -3q12 -7 4 -20l-263 -430h251q14 0 14 -15v-6z" />
<glyph unicode="{" horiz-adv-x="232" d="M199 615q6 -13 -9 -19q-24 -10 -38.5 -32t-14.5 -48v-162q0 -37 -8.5 -62.5t-35.5 -46.5q27 -21 35.5 -46t8.5 -62v-163q0 -26 14.5 -48t38.5 -31q12 -6 9 -20l-2 -5q-6 -15 -18 -9q-34 14 -55.5 44.5t-21.5 68.5v181q0 13 -5.5 27t-10.5 22l-6 7q-6 6 -14 9.5t-13 4.5 t-9 4t-4 10v3q0 8 5 12.5t16 10t19 14.5q22 26 22 56v181q0 38 21.5 69t55.5 44q13 5 18 -9z" />
<glyph unicode="|" horiz-adv-x="204" d="M120 -126q0 -14 -15 -14h-6q-15 0 -15 14v741q0 6 4.5 10.5t10.5 4.5h6q6 0 10.5 -4.5t4.5 -10.5v-741z" />
<glyph unicode="}" horiz-adv-x="232" d="M192 240q0 -11 -16 -16t-24 -13q-22 -26 -22 -56v-181q0 -38 -21 -68.5t-55 -44.5q-13 -6 -19 9l-2 5q-3 14 9 20q24 9 38.5 31t14.5 48v163q0 37 8.5 61.5t35.5 45.5q-27 21 -35.5 46.5t-8.5 62.5v163q0 26 -14.5 48t-38.5 32q-15 6 -9 19l2 5q5 14 18 9 q34 -13 55.5 -44t21.5 -69v-181q0 -13 5.5 -27t10.5 -21l6 -7q8 -9 19 -15t16 -10t5 -12v-3z" />
<glyph unicode="~" horiz-adv-x="488" d="M449 287q9 -9 -2 -19q-28 -24 -50.5 -32.5t-60.5 -8.5q-34 0 -95.5 28t-91.5 28q-55 0 -79 -23q-18 -18 -27 -8l-5 6q-8 8 11 23q45 35 100 35q36 0 97.5 -28t89.5 -28q59 0 87 27q13 13 21 5z" />
<glyph unicode="&#xa1;" horiz-adv-x="280" d="M180 536q0 -9 -6.5 -15.5t-15.5 -6.5h-8q-9 0 -16 6.5t-7 15.5v8q0 9 7 15.5t16 6.5h7q10 0 16.5 -6.5t6.5 -15.5v-8zM171 -119q0 -15 -14 -15h-6q-15 0 -15 15v496q0 14 15 14h6q14 0 14 -14v-496z" />
<glyph unicode="&#xa2;" horiz-adv-x="443" d="M360 128q0 -6 -4.5 -10t-9.5 -4h-116v-102q0 -12 -11 -12t-11 12v102h-74q-39 0 -66.5 27t-27.5 66v266q0 54 38.5 92.5t92.5 38.5h36v102q0 12 11 12t11 -12v-102h116q5 0 10 -4.5t5 -9.5v-7q0 -5 -4.5 -9.5t-9.5 -4.5h-117v-421h116q6 0 10.5 -4t4.5 -10v-6zM208 569 h-36q-41 0 -69 -28t-28 -68v-266q0 -23 17.5 -41t40.5 -18h74z" />
<glyph unicode="&#xa3;" horiz-adv-x="505" d="M458 14q0 -5 -4.5 -9.5t-9.5 -4.5h-310q-6 0 -10.5 4.5t-4.5 9.5v354h-65q-15 0 -15 14v6q0 14 15 14h65v146q0 70 49.5 120t119.5 50q42 0 85.5 -25t61.5 -59q5 -11 -3 -16l-9 -6q-11 -8 -20 9q-12 21 -43.5 41.5t-70.5 20.5q-56 0 -96 -40t-40 -95v-146h220 q14 0 14 -14v-6q0 -14 -14 -14h-220v-333h290q5 0 10 -4.5t5 -9.5v-7z" />
<glyph unicode="&#xa4;" horiz-adv-x="700" d="M633 -59h-566v179h46v27h-25v412h524v-412h-26v-27h47v-179zM585 175v357h-470v-357h470zM558 120v27h-417v-27h417zM606 -32v124h-512v-124h512zM551 355q0 -25 -2.5 -62t-4.5 -61l-3 -24h-381q-11 90 -11 147q0 25 2.5 61.5t5.5 60.5l3 24h381q10 -90 10 -146zM558 27 h-123v26h123v-26zM523 355q0 75 -8 119h-330q-8 -44 -8 -119q0 -76 8 -120h330q8 44 8 120z" />
<glyph unicode="&#xa5;" horiz-adv-x="454" d="M449 673l-145 -221h116q14 0 14 -14v-6q0 -14 -14 -14h-138l-37 -57v-99h175q14 0 14 -14v-6q0 -14 -14 -14h-175v-214q0 -14 -15 -14h-6q-14 0 -14 14v214h-175q-15 0 -15 14v6q0 14 15 14h175v100l-37 56h-138q-15 0 -15 14v6q0 14 15 14h116l-146 221q-10 14 3 21l5 3 q13 7 20 -3l194 -295l194 295q7 10 20 3l5 -3q13 -7 3 -21z" />
<glyph unicode="&#xa6;" horiz-adv-x="700" d="M656 49q-19 -28 -57.5 -57t-67.5 -44l-29 -14q-98 40 -167 79.5t-126 99.5q-97 100 -165 298q2 4 11 20.5t12.5 22t12 20t13.5 21.5t14 18.5t16.5 18.5t17.5 15t21 14l142 -178q-33 -45 -64 -63q64 -110 179 -187q19 32 66 63zM593 43l-112 94q-24 -22 -45 -67 q-50 29 -94 65.5t-71 67.5t-48.5 62t-30.5 48.5t-13 28.5q45 18 67 42l-93 115q-15 -16 -60 -92q35 -93 70 -158t90 -118q87 -83 248 -147q61 31 92 59z" />
<glyph unicode="&#xa7;" horiz-adv-x="437" d="M376 216q-5 -15 -13 -26.5t-12.5 -15.5t-21 -16.5t-20.5 -15.5q66 -50 66 -151q0 -56 -46.5 -101t-109.5 -45q-45 0 -79.5 22t-54.5 55q-4 9 3 13l8 5q10 6 18 -8q12 -20 40 -38.5t65 -18.5q51 0 88.5 36t37.5 80q0 20 -2 35.5t-9.5 35.5t-25.5 35.5t-46 24.5l-113 35 q-65 21 -89 78.5t11 122.5q8 14 18 23.5t26 21t24 18.5q-74 40 -74 139q0 53 43.5 86.5t111.5 33.5q45 0 79.5 -22t54.5 -55q5 -8 -2 -13l-8 -5q-10 -6 -19 8q-12 20 -40 38.5t-65 18.5q-50 0 -87.5 -22.5t-37.5 -67.5q0 -49 21 -79t77 -48l93 -30q48 -15 81.5 -63t8.5 -124 zM352 238q13 43 -7.5 82.5t-63.5 52.5l-58 18q-43 14 -82.5 -6.5t-52.5 -63.5q-13 -42 7.5 -81.5t62.5 -53.5l59 -18q42 -13 81.5 7.5t53.5 62.5z" />
<glyph unicode="&#xa8;" horiz-adv-x="282" d="M232 697q0 -8 -6 -13.5t-14 -5.5h-6q-8 0 -13.5 5.5t-5.5 13.5v6q0 8 5.5 14t13.5 6h6q8 0 14 -6t6 -14v-6zM95 697q0 -8 -5.5 -13.5t-13.5 -5.5h-6q-8 0 -14 5.5t-6 13.5v6q0 8 6 14t14 6h6q8 0 13.5 -6t5.5 -14v-6z" />
<glyph unicode="&#xa9;" horiz-adv-x="821" d="M748 338q0 -140 -99 -239t-239 -99t-238.5 99t-98.5 239t98.5 238.5t238.5 98.5t239 -98.5t99 -238.5zM713 338q0 125 -88.5 213.5t-214.5 88.5q-125 0 -213.5 -88.5t-88.5 -213.5q0 -126 88.5 -214.5t213.5 -88.5q126 0 214.5 88.5t88.5 214.5zM508 153q0 -13 -12 -13 h-137q-34 0 -58 24t-24 58v208q0 44 30.5 74.5t74.5 30.5h114q12 0 12 -13v-4q0 -13 -12 -13h-114q-32 0 -53.5 -21.5t-21.5 -53.5v-208q0 -22 15 -37t37 -15h137q12 0 12 -13v-4z" />
<glyph unicode="&#xaa;" horiz-adv-x="393" d="M310 346q0 -13 -13 -13h-156q-36 0 -61 25t-25 60v28q0 36 25 61t61 25h138v68q0 28 -20 48.5t-48 20.5h-115q-13 0 -13 13v5q0 13 13 13h115q41 0 70 -29t29 -70v-255zM310 239q0 -6 -4.5 -10.5t-11.5 -4.5h-222q-17 0 -17 16q0 15 17 15h222q16 0 16 -16zM279 364v137 h-138q-23 0 -39 -16t-16 -38v-29q0 -22 16 -38t39 -16h138z" />
<glyph unicode="&#xab;" horiz-adv-x="508" d="M437 435q9 -9 -1 -21l-146 -146l145 -145q12 -10 1 -21q-10 -10 -20 1l-155 155q-11 10 0 21l155 155q10 10 21 1zM213 435q9 -9 -1 -21l-146 -146l145 -145q12 -10 1 -21q-10 -10 -20 1l-155 155q-11 10 0 21l155 155q10 10 21 1z" />
<glyph unicode="&#xac;" horiz-adv-x="522" d="M441 88q0 -6 -4.5 -10t-9.5 -4h-7q-5 0 -9.5 4t-4.5 10v140h-365q-15 0 -15 14v6q0 14 14 14h388q13 0 13 -14v-160z" />
<glyph unicode="&#xad;" horiz-adv-x="320" d="M282 259q0 -14 -14 -14h-216q-15 0 -15 14v6q0 6 4.5 10.5t10.5 4.5h216q14 0 14 -15v-6z" />
<glyph unicode="&#xae;" horiz-adv-x="821" d="M748 338q0 -140 -99 -239t-239 -99t-238.5 99t-98.5 239t98.5 238.5t238.5 98.5t239 -98.5t99 -238.5zM713 338q0 125 -88.5 213.5t-214.5 88.5q-125 0 -213.5 -88.5t-88.5 -213.5q0 -126 88.5 -214.5t213.5 -88.5q126 0 214.5 88.5t88.5 214.5zM547 424q0 -42 -28 -73.5 t-78 -32.5l103 -154q8 -13 -5 -21q-13 -9 -18 2l-117 174h-81v-166q0 -13 -13 -13h-4q-13 0 -13 13v369q0 13 13 13h136q44 0 74.5 -30.5t30.5 -74.5v-6zM517 424v6q0 32 -21.5 53.5t-53.5 21.5h-119v-156h119q31 0 53 22t22 53z" />
<glyph unicode="&#xaf;" horiz-adv-x="432" d="M363 663q0 -6 -5 -11t-13 -5h-258q-7 0 -12.5 5t-5.5 12q0 6 5 11t13 5h258q18 0 18 -17z" />
<glyph unicode="&#xb0;" horiz-adv-x="344" d="M291 388q0 -49 -34.5 -83.5t-83.5 -34.5q-50 0 -85 34.5t-35 83.5t35 84t85 35q49 0 83.5 -35t34.5 -84zM258 388q0 37 -25 62.5t-61 25.5t-60.5 -25.5t-24.5 -62.5t24.5 -62t60.5 -25t61 25.5t25 61.5z" />
<glyph unicode="&#xb1;" horiz-adv-x="452" d="M367 280q0 -14 -15 -14h-137v-138q0 -6 -4.5 -10t-9.5 -4h-7q-5 0 -9.5 4t-4.5 10v138h-138q-6 0 -10.5 4t-4.5 10v6q0 6 4.5 10t9.5 4h138v138q0 5 4.5 9.5t9.5 4.5h7q5 0 9.5 -4.5t4.5 -9.5v-138h137q6 0 11 -4t5 -10v-6zM367 14q0 -5 -4.5 -9.5t-10.5 -4.5h-310 q-5 0 -10 4.5t-5 9.5v7q0 5 4.5 9.5t9.5 4.5h310q6 0 11 -4.5t5 -9.5v-7z" />
<glyph unicode="&#xb2;" horiz-adv-x="225" d="M170 332q0 -12 -12 -12h-99q-12 0 -12 12v2q0 4 6 10l75 82q10 12 10 23q0 13 -10 23t-23 10q-12 0 -21 -8t-10 -18q-2 -12 -12 -12h-2q-5 0 -9 3.5t-3 8.5q1 22 18.5 37t38.5 15q25 0 42 -17t17 -42q0 -21 -19 -42l-54 -61h67q12 0 12 -12v-2z" />
<glyph unicode="&#xb3;" horiz-adv-x="227" d="M172 359q0 -24 -17.5 -41t-41.5 -17q-23 0 -39 15t-18 36q-1 5 3 9t9 4h2q10 0 12 -12q4 -26 31 -26q13 0 23 9t10 20v2q0 12 -10 21.5t-23 9.5h-8q-12 0 -12 12v2q0 12 12 12h8q10 0 18 7t8 17t-7 17t-18 7q-23 0 -27 -18q-6 -13 -17 -6l-3 1q-8 5 -4 16q11 33 50 33 q22 0 37 -14.5t15 -35.5q0 -22 -16 -36q23 -18 23 -44z" />
<glyph unicode="&#xb4;" horiz-adv-x="381" d="M256 750l-107 -129q-10 -10 -20 -1l-2 1q-11 9 -2 20l108 128q4 5 10 5.5t10 -3.5l2 -1q4 -3 4.5 -9.5t-3.5 -10.5z" />
<glyph unicode="&#xb5;" horiz-adv-x="489" d="M414 -21q0 -5 -4.5 -9.5t-9.5 -4.5h-7q-5 0 -9.5 4.5t-4.5 9.5v102q-55 -81 -136 -81q-43 0 -80 24t-53 60v-260q0 -5 -4 -9.5t-10 -4.5h-6q-6 0 -10.5 4.5t-4.5 9.5v652q0 5 4 9.5t10 4.5h6q6 0 10 -4.5t4 -9.5v-310q0 -54 41.5 -92.5t91.5 -38.5q55 0 95.5 39.5 t40.5 94.5v307q0 5 4.5 9.5t9.5 4.5h7q5 0 10 -4.5t5 -9.5v-497z" />
<glyph unicode="&#xb6;" horiz-adv-x="565" d="M396 -138q0 -5 -4.5 -9.5t-9.5 -4.5h-7q-6 0 -10 4.5t-4 9.5v821h-81v-821q0 -5 -4.5 -9.5t-9.5 -4.5h-7q-5 0 -9.5 4.5t-4.5 9.5v517h-58q-70 0 -120 49.5t-50 119.5q0 71 49.5 120.5t119.5 49.5h195q5 0 10 -4.5t5 -10.5v-841z" />
<glyph unicode="&#xb7;" horiz-adv-x="242" d="M151 256q0 -19 -13.5 -32.5t-32.5 -13.5h-7q-19 0 -32.5 13t-13.5 32v8q0 19 13 32.5t32 13.5h8q19 0 32.5 -13.5t13.5 -32.5v-7z" />
<glyph unicode="&#xb8;" horiz-adv-x="501" d="M315 -32q5 -4 5 -10.5t-5 -10.5l-118 -118q-10 -10 -20 0l-1 1q-10 10 -1 20l118 119q11 11 21 0z" />
<glyph unicode="&#xb9;" horiz-adv-x="209" d="M134 315q0 -12 -12 -12h-2q-12 0 -12 12v136l-12 -9q-8 -8 -16 1l-2 2q-8 9 2 17l32 26q4 3 8 3h2q12 0 12 -12v-164z" />
<glyph unicode="&#xba;" horiz-adv-x="419" d="M344 460q0 -52 -37 -89.5t-90 -37.5h-14q-53 0 -90.5 37t-37.5 90v112q0 53 37.5 90.5t90.5 37.5h14q53 0 90 -37.5t37 -90.5v-112zM340 239q0 -15 -17 -15h-227q-17 0 -17 16q0 15 17 15h227q17 0 17 -16zM313 460v112q0 40 -28 68.5t-68 28.5h-14q-41 0 -69 -28.5 t-28 -68.5v-112q0 -40 28.5 -68t68.5 -28h14q40 0 68 28t28 68z" />
<glyph unicode="&#xbb;" horiz-adv-x="508" d="M471 258l-155 -155q-10 -10 -21 -1q-10 10 1 21l146 145l-146 146q-10 12 -1 21q10 10 21 -1l154 -155q12 -10 1 -21zM247 258l-155 -155q-10 -10 -21 -1q-10 10 1 21l146 145l-146 146q-10 12 -1 21q10 10 21 -1l154 -155q12 -10 1 -21z" />
<glyph unicode="&#xbc;" horiz-adv-x="460" d="M344 468l-184 -460q-5 -12 -19 -8l-6 2q-12 5 -8 18l184 460q5 14 19 9l7 -3q12 -6 7 -18zM149 315q0 -12 -12 -12h-2q-12 0 -12 12v136l-12 -9q-8 -8 -16 1l-2 2q-8 9 2 17l32 26q4 3 8 3h2q12 0 12 -12v-164zM397 51q0 -12 -12 -12h-14v-27q0 -12 -12 -12h-2 q-12 0 -12 12v27h-60q-6 0 -9.5 5.5t-1.5 11.5l60 125q6 11 16 5l2 -1q9 -4 5 -16l-50 -104h38v27q0 12 12 12h2q5 0 8.5 -4t3.5 -8v-27h14q12 0 12 -12v-2z" />
<glyph unicode="&#xbd;" horiz-adv-x="460" d="M344 468l-184 -460q-5 -12 -19 -8l-6 2q-12 5 -8 18l184 460q5 14 19 9l7 -3q12 -6 7 -18zM149 315q0 -12 -12 -12h-2q-12 0 -12 12v136l-12 -9q-8 -8 -16 1l-2 2q-8 9 2 17l32 26q4 3 8 3h2q12 0 12 -12v-164zM416 12q0 -12 -12 -12h-99q-12 0 -12 12v2q0 4 6 10l75 82 q10 12 10 23q0 13 -10 23t-23 10q-12 0 -21 -8t-10 -18q-2 -12 -12 -12h-2q-5 0 -9 3.5t-3 8.5q1 22 18.5 37t38.5 15q25 0 42 -17t17 -42q0 -21 -19 -42l-54 -61h67q12 0 12 -12v-2z" />
<glyph unicode="&#xbe;" horiz-adv-x="460" d="M344 468l-184 -460q-5 -12 -19 -8l-6 2q-12 5 -8 18l184 460q5 14 19 9l7 -3q12 -6 7 -18zM191 359q0 -24 -17.5 -41t-41.5 -17q-23 0 -39 15t-18 36q-1 5 3 9t9 4h2q10 0 12 -12q4 -26 31 -26q13 0 23 9t10 20v2q0 12 -10 21.5t-23 9.5h-8q-12 0 -12 12v2q0 12 12 12h8 q10 0 18 7t8 17t-7 17t-18 7q-23 0 -27 -18q-6 -13 -17 -6l-3 1q-8 5 -4 16q11 33 50 33q22 0 37 -14.5t15 -35.5q0 -22 -16 -36q23 -18 23 -44zM397 51q0 -12 -12 -12h-14v-27q0 -12 -12 -12h-2q-12 0 -12 12v27h-60q-6 0 -9.5 5.5t-1.5 11.5l60 125q6 11 16 5l2 -1 q9 -4 5 -16l-50 -104h38v27q0 12 12 12h2q5 0 8.5 -4t3.5 -8v-27h14q12 0 12 -12v-2z" />
<glyph unicode="&#xbf;" horiz-adv-x="421" d="M252 536q0 -9 -6.5 -15.5t-15.5 -6.5h-8q-9 0 -15.5 6.5t-6.5 15.5v8q0 9 6.5 15.5t15.5 6.5h8q9 0 15.5 -6.5t6.5 -15.5v-8zM344 5q0 -54 -46.5 -96.5t-106.5 -42.5q-67 0 -111.5 44.5t-44.5 106.5q0 73 47 108l86 66q40 31 40 74v112q0 14 15 14h6q14 0 14 -14v-112 q0 -29 -14.5 -56t-33.5 -41l-81 -62q-44 -34 -44 -89q0 -48 34.5 -82t86.5 -34q49 0 85 33.5t36 71.5q0 15 14 15h6q12 0 12 -16z" />
<glyph unicode="&#xc0;" horiz-adv-x="421" d="M238 785q9 -11 -2 -20l-2 -1q-11 -11 -19 1l-108 128q-9 11 1 21l2 1q12 10 20 -2zM411 18q4 -11 -11 -16l-6 -2q-13 -4 -17 12l-55 215h-223l-55 -215q-4 -16 -17 -12l-6 2q-15 5 -11 16l183 671q3 12 18 12q14 0 17 -12zM313 262l-72 262l-30 131l-31 -131l-72 -262 h205z" />
<glyph unicode="&#xc1;" horiz-adv-x="421" d="M336 893l-107 -128q-10 -11 -20 -1l-1 1q-12 9 -3 20l108 128q9 12 21 2l1 -1q10 -10 1 -21zM411 18q4 -13 -11 -16l-6 -2q-14 -2 -17 12l-55 215h-223l-55 -215q-3 -14 -17 -12l-6 2q-15 3 -11 16l183 671q3 12 18 12q14 0 17 -12zM313 262l-72 262l-30 131l-31 -131 l-72 -262h205z" />
<glyph unicode="&#xc2;" horiz-adv-x="421" d="M309 792q4 -4 3 -11t-7 -11q-12 -10 -25 6l-69 80l-70 -80q-12 -16 -24 -6q-6 4 -7 11t3 11l81 92q12 12 17 12t17 -12zM411 18q4 -11 -11 -16l-6 -2q-13 -4 -17 12l-55 215h-223l-55 -215q-4 -16 -17 -12l-6 2q-15 5 -11 16l183 671q3 12 18 12q14 0 17 -12zM313 262 l-72 262l-30 131l-31 -131l-72 -262h205z" />
<glyph unicode="&#xc3;" horiz-adv-x="421" d="M342 831q8 -7 0 -17q-26 -28 -63 -28q-22 0 -60.5 18t-57.5 18q-22 0 -45 -18q-9 -9 -15 -2l-4 4q-8 9 10 24q26 20 52 20q24 0 62.5 -17.5t57.5 -17.5q23 0 42 16q10 9 17 4zM411 18q4 -13 -11 -16l-6 -2q-14 -2 -17 12l-55 215h-223l-55 -215q-3 -14 -17 -12l-6 2 q-15 3 -11 16l183 671q3 12 18 12q14 0 17 -12zM313 262l-72 262l-30 131l-31 -131l-72 -262h205z" />
<glyph unicode="&#xc4;" horiz-adv-x="421" d="M302 797q0 -8 -6 -13.5t-14 -5.5h-6q-8 0 -13.5 5.5t-5.5 13.5v6q0 8 5.5 14t13.5 6h6q8 0 14 -6t6 -14v-6zM165 797q0 -8 -5.5 -13.5t-13.5 -5.5h-6q-8 0 -14 5.5t-6 13.5v6q0 8 6 14t14 6h6q8 0 13.5 -6t5.5 -14v-6zM411 18q4 -13 -11 -16l-6 -2q-14 -2 -17 12l-55 215 h-223l-55 -215q-3 -14 -17 -12l-6 2q-15 3 -11 16l183 671q3 12 18 12q14 0 17 -12zM313 262l-72 262l-30 131l-31 -131l-72 -262h205z" />
<glyph unicode="&#xc5;" horiz-adv-x="421" d="M293 816q0 -35 -24 -59t-58 -24q-33 0 -57 24.5t-24 58.5q0 33 24 57t57 24q34 0 58 -23.5t24 -57.5zM411 18q4 -11 -11 -16l-6 -2q-13 -4 -17 12l-55 215h-223l-55 -215q-4 -16 -17 -12l-6 2q-15 5 -11 16l183 671q3 12 18 12q14 0 17 -12zM270 816q0 24 -17 40.5 t-42 16.5q-24 0 -41 -16.5t-17 -40.5t17.5 -41.5t40.5 -17.5q25 0 42 17.5t17 41.5zM313 262l-72 262l-30 141l-31 -141l-72 -262h205z" />
<glyph unicode="&#xc6;" horiz-adv-x="781" d="M731 14q0 -6 -4.5 -10t-9.5 -4h-340q-13 0 -13 14v208h-218l-106 -215q-9 -12 -19 -6l-3 2q-13 9 -8 20l331 670q4 7 16 7h359q15 0 15 -14v-6q0 -5 -4.5 -9.5t-9.5 -4.5h-321v-262h283q6 0 10.5 -4t4.5 -10v-6q0 -6 -4.5 -10t-9.5 -4h-284v-336h320q5 0 10 -4.5t5 -9.5 v-6zM363 255v3v4v3v4v3v4v3v4v3v4v3v4v3v4v3v4v3v4v3v4v3v4v3v4v3v4v4v3v4v3v4v3v4v3v4v3v4v4v3v4v3v4v3v4v4v3v4v3v4v4v3v4v3v4v4v3v4v3v4v4v3v4v4v3v4v4v3v4v4v4v3v4v4v3v4v4v4v3v4v4v4v4v4v3v4v4v4v4v4v4v4v4v4v4v4v4v4v4v4v5v4v4v5v4v5v5v6v7l-200 -407h200z" />
<glyph unicode="&#xc7;" horiz-adv-x="486" d="M423 14q0 -14 -14 -14h-213q-51 0 -87 36t-36 86v420q0 66 46.5 112t111.5 46h178q14 0 14 -15v-6q0 -14 -14 -14h-178q-51 0 -87 -36t-36 -87v-420q0 -36 26 -61.5t62 -25.5h213q14 0 14 -15v-6zM315 -32q5 -4 5 -10.5t-5 -10.5l-118 -118q-10 -10 -20 0l-1 1 q-10 10 -1 20l118 119q11 11 21 0z" />
<glyph unicode="&#xc8;" horiz-adv-x="501" d="M305 738q-9 -9 -17 1l-114 136q-8 10 -1 17q8 8 17 -1l115 -136q7 -10 0 -17zM451 14q0 -14 -15 -14h-321q-15 0 -15 14v671q0 6 4.5 10.5t10.5 4.5h321q14 0 14 -15v-6q0 -14 -14 -14h-300v-245h265q6 0 10.5 -4.5t4.5 -10.5v-6q0 -14 -15 -14h-265v-350h300 q6 0 10.5 -4.5t4.5 -10.5v-6z" />
<glyph unicode="&#xc9;" horiz-adv-x="501" d="M336 893l-107 -128q-10 -11 -20 -1l-1 1q-12 9 -3 20l108 128q9 12 21 2l1 -1q10 -10 1 -21zM451 14q0 -14 -15 -14h-321q-15 0 -15 14v671q0 6 4.5 10.5t10.5 4.5h321q14 0 14 -15v-6q0 -14 -14 -14h-300v-245h265q6 0 10.5 -4.5t4.5 -10.5v-6q0 -14 -15 -14h-265v-350 h300q6 0 10.5 -4.5t4.5 -10.5v-6z" />
<glyph unicode="&#xca;" horiz-adv-x="501" d="M379 792q4 -4 3 -11t-7 -11q-12 -10 -25 6l-69 80l-70 -80q-12 -16 -24 -6q-6 4 -7 11t3 11l81 92q12 12 17 12t17 -12zM451 14q0 -14 -15 -14h-321q-15 0 -15 14v671q0 6 4.5 10.5t10.5 4.5h321q14 0 14 -15v-6q0 -14 -14 -14h-300v-245h265q6 0 10.5 -4.5t4.5 -10.5v-6 q0 -14 -15 -14h-265v-350h300q6 0 10.5 -4.5t4.5 -10.5v-6z" />
<glyph unicode="&#xcb;" horiz-adv-x="501" d="M362 797q0 -8 -6 -13.5t-14 -5.5h-6q-8 0 -13.5 5.5t-5.5 13.5v6q0 8 5.5 14t13.5 6h6q8 0 14 -6t6 -14v-6zM225 797q0 -8 -5.5 -13.5t-13.5 -5.5h-6q-8 0 -14 5.5t-6 13.5v6q0 8 6 14t14 6h6q8 0 13.5 -6t5.5 -14v-6zM451 14q0 -14 -15 -14h-321q-15 0 -15 14v671 q0 6 4.5 10.5t10.5 4.5h321q14 0 14 -15v-6q0 -14 -14 -14h-300v-245h265q6 0 10.5 -4.5t4.5 -10.5v-6q0 -14 -15 -14h-265v-350h300q6 0 10.5 -4.5t4.5 -10.5v-6z" />
<glyph unicode="&#xcc;" horiz-adv-x="235" d="M148 785q9 -11 -2 -20l-2 -1q-11 -11 -19 1l-108 128q-9 11 1 21l2 1q12 10 20 -2zM135 14q0 -14 -14 -14h-6q-15 0 -15 14v671q0 6 4.5 10.5t10.5 4.5h6q14 0 14 -15v-671z" />
<glyph unicode="&#xcd;" horiz-adv-x="235" d="M226 893l-107 -128q-10 -11 -20 -1l-1 1q-12 9 -3 20l108 128q9 12 21 2l1 -1q10 -10 1 -21zM135 14q0 -14 -14 -14h-6q-15 0 -15 14v671q0 6 4.5 10.5t10.5 4.5h6q14 0 14 -15v-671z" />
<glyph unicode="&#xce;" horiz-adv-x="235" d="M215 792q4 -4 3 -11t-7 -11q-12 -10 -25 6l-69 80l-70 -80q-12 -16 -24 -6q-6 4 -7 11t3 11l81 92q12 12 17 12t17 -12zM135 14q0 -14 -14 -14h-6q-15 0 -15 14v671q0 6 4.5 10.5t10.5 4.5h6q14 0 14 -15v-671z" />
<glyph unicode="&#xcf;" horiz-adv-x="235" d="M212 797q0 -8 -6 -13.5t-14 -5.5h-6q-8 0 -13.5 5.5t-5.5 13.5v6q0 8 5.5 14t13.5 6h6q8 0 14 -6t6 -14v-6zM75 797q0 -8 -5.5 -13.5t-13.5 -5.5h-6q-8 0 -14 5.5t-6 13.5v6q0 8 6 14t14 6h6q8 0 13.5 -6t5.5 -14v-6zM135 14q0 -14 -14 -14h-6q-15 0 -15 14v671 q0 6 4.5 10.5t10.5 4.5h6q14 0 14 -15v-671z" />
<glyph unicode="&#xd0;" horiz-adv-x="558" d="M485 122q0 -50 -36 -86t-86 -36h-249q-14 0 -14 14v354h-46q-15 0 -15 14v6q0 14 15 14h46v283q0 15 14 15h213q66 0 112 -46.5t46 -111.5v-420zM450 122v420q0 51 -36 87t-86 36h-193v-263h127q14 0 14 -14v-6q0 -14 -14 -14h-127v-333h228q36 0 61.5 25.5t25.5 61.5z " />
<glyph unicode="&#xd1;" horiz-adv-x="570" d="M412 831q8 -7 0 -17q-26 -28 -63 -28q-22 0 -60.5 18t-57.5 18q-22 0 -45 -18q-9 -9 -15 -2l-4 4q-8 9 10 24q26 20 52 20q24 0 62.5 -17.5t57.5 -17.5q23 0 42 16q10 9 17 4zM470 14q0 -14 -14 -14h-4q-10 0 -15 8l-302 599v-593q0 -14 -15 -14h-6q-14 0 -14 14v671 q0 15 14 15h6q9 0 13 -8l302 -598v591q0 15 15 15h6q14 0 14 -15v-671z" />
<glyph unicode="&#xd2;" horiz-adv-x="532" d="M288 785q9 -11 -2 -20l-2 -1q-11 -11 -19 1l-108 128q-9 11 1 21l2 1q12 10 20 -2zM459 157q0 -65 -46.5 -111t-111.5 -46h-70q-65 0 -111.5 46t-46.5 111v385q0 65 46.5 111.5t111.5 46.5h70q65 0 111.5 -46.5t46.5 -111.5v-385zM424 157v385q0 51 -36 87t-87 36h-70 q-51 0 -86.5 -36t-35.5 -87v-385q0 -50 35.5 -86t86.5 -36h70q51 0 87 36t36 86z" />
<glyph unicode="&#xd3;" horiz-adv-x="532" d="M346 893l-107 -128q-10 -11 -20 -1l-1 1q-12 9 -3 20l108 128q9 12 21 2l1 -1q10 -10 1 -21zM459 157q0 -65 -46.5 -111t-111.5 -46h-70q-65 0 -111.5 46t-46.5 111v385q0 65 46.5 111.5t111.5 46.5h70q65 0 111.5 -46.5t46.5 -111.5v-385zM424 157v385q0 51 -36 87 t-87 36h-70q-51 0 -86.5 -36t-35.5 -87v-385q0 -50 35.5 -86t86.5 -36h70q51 0 87 36t36 86z" />
<glyph unicode="&#xd4;" horiz-adv-x="532" d="M371 792q4 -4 3 -11t-7 -11q-12 -10 -25 6l-69 80l-70 -80q-12 -16 -24 -6q-6 4 -7 11t3 11l81 92q12 12 17 12t17 -12zM459 157q0 -65 -46.5 -111t-111.5 -46h-70q-65 0 -111.5 46t-46.5 111v385q0 65 46.5 111.5t111.5 46.5h70q65 0 111.5 -46.5t46.5 -111.5v-385z M424 157v385q0 51 -36 87t-87 36h-70q-51 0 -86.5 -36t-35.5 -87v-385q0 -50 35.5 -86t86.5 -36h70q51 0 87 36t36 86z" />
<glyph unicode="&#xd5;" horiz-adv-x="532" d="M392 831q8 -7 0 -17q-26 -28 -63 -28q-22 0 -60.5 18t-57.5 18q-22 0 -45 -18q-9 -9 -15 -2l-4 4q-8 9 10 24q26 20 52 20q24 0 62.5 -17.5t57.5 -17.5q23 0 42 16q10 9 17 4zM459 157q0 -65 -46.5 -111t-111.5 -46h-70q-65 0 -111.5 46t-46.5 111v385q0 65 46.5 111.5 t111.5 46.5h70q65 0 111.5 -46.5t46.5 -111.5v-385zM424 157v385q0 51 -36 87t-87 36h-70q-51 0 -86.5 -36t-35.5 -87v-385q0 -50 35.5 -86t86.5 -36h70q51 0 87 36t36 86z" />
<glyph unicode="&#xd6;" horiz-adv-x="532" d="M362 797q0 -8 -6 -13.5t-14 -5.5h-6q-8 0 -13.5 5.5t-5.5 13.5v6q0 8 5.5 14t13.5 6h6q8 0 14 -6t6 -14v-6zM225 797q0 -8 -5.5 -13.5t-13.5 -5.5h-6q-8 0 -14 5.5t-6 13.5v6q0 8 6 14t14 6h6q8 0 13.5 -6t5.5 -14v-6zM459 157q0 -65 -46.5 -111t-111.5 -46h-70 q-65 0 -111.5 46t-46.5 111v385q0 65 46.5 111.5t111.5 46.5h70q65 0 111.5 -46.5t46.5 -111.5v-385zM424 157v385q0 51 -36 87t-87 36h-70q-51 0 -86.5 -36t-35.5 -87v-385q0 -50 35.5 -86t86.5 -36h70q51 0 87 36t36 86z" />
<glyph unicode="&#xd7;" horiz-adv-x="419" d="M373 107q9 -10 0 -21l-5 -4q-9 -11 -20 0l-138 138l-139 -138q-9 -11 -20 0l-4 4q-11 10 0 21l138 138l-138 138q-11 11 0 21l4 4q11 11 20 0l139 -138l138 138q11 11 20 0l5 -4q9 -10 0 -21l-139 -138z" />
<glyph unicode="&#xd8;" horiz-adv-x="572" d="M453 708l-35 -74q30 -41 30 -92v-385q0 -65 -46 -111t-111 -46h-71q-48 0 -88 27l-44 -93q-2 -5 -9 -7t-11 0l-5 2q-6 2 -8 9t0 12l48 102q-40 45 -40 105v385q0 65 46 111.5t111 46.5h71q57 0 101 -38l29 62q7 13 19 6l7 -4q11 -6 6 -18zM376 630q-37 35 -85 35h-70 q-51 0 -87 -36t-36 -87v-385q0 -39 22 -70zM413 157v385q0 28 -13 54l-253 -537q32 -24 73 -24h71q50 0 86 36t36 86z" />
<glyph unicode="&#xd9;" horiz-adv-x="565" d="M298 785q9 -11 -2 -20l-2 -1q-11 -11 -19 1l-108 128q-9 11 1 21l2 1q12 10 20 -2zM475 192q0 -80 -56.5 -136t-136.5 -56t-136 56t-56 136v493q0 15 14 15h7q14 0 14 -15v-493q0 -65 46 -111t111 -46t111.5 46t46.5 111v493q0 6 4.5 10.5t10.5 4.5h6q14 0 14 -15v-493z " />
<glyph unicode="&#xda;" horiz-adv-x="566" d="M336 893l-107 -128q-10 -11 -20 -1l-1 1q-12 9 -3 20l108 128q9 12 21 2l1 -1q10 -10 1 -21zM475 192q0 -80 -56.5 -136t-136.5 -56t-136 56t-56 136v493q0 15 14 15h7q14 0 14 -15v-493q0 -65 46 -111t111 -46t111.5 46t46.5 111v493q0 6 4.5 10.5t10.5 4.5h6 q14 0 14 -15v-493z" />
<glyph unicode="&#xdb;" horiz-adv-x="566" d="M381 792q4 -4 3 -11t-7 -11q-12 -10 -25 6l-69 80l-70 -80q-12 -16 -24 -6q-6 4 -7 11t3 11l81 92q12 12 17 12t17 -12zM475 192q0 -80 -56.5 -136t-136.5 -56t-136 56t-56 136v493q0 15 14 15h7q14 0 14 -15v-493q0 -65 46 -111t111 -46t111.5 46t46.5 111v493 q0 6 4.5 10.5t10.5 4.5h6q14 0 14 -15v-493z" />
<glyph unicode="&#xdc;" horiz-adv-x="566" d="M362 797q0 -8 -6 -13.5t-14 -5.5h-6q-8 0 -13.5 5.5t-5.5 13.5v6q0 8 5.5 14t13.5 6h6q8 0 14 -6t6 -14v-6zM225 797q0 -8 -5.5 -13.5t-13.5 -5.5h-6q-8 0 -14 5.5t-6 13.5v6q0 8 6 14t14 6h6q8 0 13.5 -6t5.5 -14v-6zM475 192q0 -80 -56.5 -136t-135.5 -56 q-80 0 -136.5 56.5t-56.5 135.5v493q0 6 4.5 10.5t10.5 4.5h6q14 0 14 -15v-493q0 -65 46.5 -111t111.5 -46t111 46t46 111v493q0 6 4.5 10.5t10.5 4.5h6q14 0 14 -15v-493z" />
<glyph unicode="&#xdd;" horiz-adv-x="454" d="M449 673l-204 -312v-347q0 -14 -15 -14h-6q-14 0 -14 14v348l-205 311q-8 12 3 21l5 3q13 7 20 -3l194 -295l194 295q7 10 20 3l5 -3q11 -9 3 -21zM336 893l-107 -128q-10 -11 -20 -1l-1 1q-12 9 -3 20l108 128q9 12 21 2l1 -1q10 -10 1 -21z" />
<glyph unicode="&#xde;" horiz-adv-x="700" d="M656 49q-19 -28 -57.5 -57t-67.5 -44l-29 -14q-98 40 -167 79.5t-126 99.5q-97 100 -165 298q2 4 11 20.5t12.5 22t12 20t13.5 21.5t14 18.5t16.5 18.5t17.5 15t21 14l90 -113l181 180l187 -188q9 -9 9 -23v-165q0 -15 -9 -24l-80 -80zM596 269l-69 69l66 66l-160 161 l-152 -153l23 -29q-33 -45 -64 -63q64 -110 179 -187q19 32 66 63l20 -18zM593 43l-112 94q-24 -22 -45 -67q-50 29 -94 65.5t-71 67.5t-48.5 62t-30.5 48.5t-13 28.5q45 18 67 42l-93 115q-15 -16 -60 -92q35 -93 70 -158t90 -118q87 -83 248 -147q61 31 92 59zM519 370 l-14 -14l-106 105l14 15zM536 275l-14 -15l-162 162l14 15zM460 273l-15 -15l-124 125l14 15z" />
<glyph unicode="&#xdf;" horiz-adv-x="582" d="M482 131q0 -54 -38.5 -92.5t-93.5 -38.5h-79q-5 0 -10 4.5t-5 9.5v7q0 5 4.5 9.5t9.5 4.5h79q41 0 69.5 28t28.5 68v228q0 41 -28 68.5t-69 27.5h-79q-5 0 -10 4.5t-5 9.5v7q0 5 4.5 9.5t9.5 4.5h79q41 0 69.5 28t28.5 68q0 41 -28 69t-69 28h-151q-41 0 -69 -28t-28 -69 v-572q0 -5 -4 -9.5t-10 -4.5h-6q-6 0 -10.5 4.5t-4.5 9.5v572q0 55 38 93.5t93 38.5h151q55 0 94 -38.5t39 -93.5q0 -34 -19 -70.5t-49 -42.5q34 -14 51 -47t17 -67v-228z" />
<glyph unicode="&#xe0;" horiz-adv-x="443" d="M263 567q9 -11 -3 -20l-1 -1q-11 -9 -20 1l-108 128q-8 12 2 21l1 1q12 10 21 -2zM362 14q0 -14 -14 -14h-196q-44 0 -74.5 31t-30.5 74v70q0 43 31 74t74 31h175v87q0 37 -25.5 62.5t-61.5 25.5h-143q-15 0 -15 14v6q0 15 15 15h143q51 0 86.5 -36t35.5 -87v-353z M327 35v210h-175q-29 0 -49 -20.5t-20 -49.5v-70q0 -29 20 -49.5t49 -20.5h175z" />
<glyph unicode="&#xe1;" horiz-adv-x="443" d="M274 675l-107 -128q-10 -11 -20 -1l-2 1q-11 9 -2 20l108 128q4 5 10 5.5t10 -3.5l2 -1q10 -10 1 -21zM362 14q0 -14 -14 -14h-196q-44 0 -74.5 31t-30.5 74v70q0 43 31 74t74 31h175v87q0 37 -25.5 62.5t-61.5 25.5h-143q-15 0 -15 14v6q0 15 15 15h143q51 0 86.5 -36 t35.5 -87v-353zM327 35v210h-175q-29 0 -49 -20.5t-20 -49.5v-70q0 -29 20 -49.5t49 -20.5h175z" />
<glyph unicode="&#xe2;" horiz-adv-x="443" d="M302 615q10 -12 -5 -23q-12 -8 -24 6l-70 81l-69 -81q-12 -13 -25 -6q-14 11 -4 23l82 91q7 12 16 12q5 0 17 -12zM362 14q0 -14 -14 -14h-196q-44 0 -74.5 31t-30.5 74v70q0 43 31 74t74 31h175v87q0 37 -25.5 62.5t-61.5 25.5h-143q-15 0 -15 14v6q0 15 15 15h143 q51 0 86.5 -36t35.5 -87v-353zM327 35v210h-175q-29 0 -49 -20.5t-20 -49.5v-70q0 -29 20 -49.5t49 -20.5h175z" />
<glyph unicode="&#xe3;" horiz-adv-x="443" d="M338 637q8 -8 -1 -17q-23 -27 -62 -27q-23 0 -61 17.5t-58 17.5q-24 0 -44 -18q-10 -8 -16 -2l-4 4q-3 3 -3.5 5.5t1.5 5t3.5 4.5t5 5t4.5 4q23 20 51 20q24 0 62.5 -17.5t57.5 -17.5q23 0 42 16q11 10 17 4zM362 14q0 -14 -14 -14h-196q-44 0 -74.5 31t-30.5 74v70 q0 43 31 74t74 31h175v87q0 37 -25.5 62.5t-61.5 25.5h-143q-15 0 -15 14v6q0 15 15 15h143q51 0 86.5 -36t35.5 -87v-353zM327 35v210h-175q-29 0 -49 -20.5t-20 -49.5v-70q0 -29 20 -49.5t49 -20.5h175z" />
<glyph unicode="&#xe4;" horiz-adv-x="443" d="M296 606q0 -8 -5.5 -14t-13.5 -6h-6q-8 0 -14 6t-6 14v6q0 8 6 13.5t14 5.5h6q8 0 13.5 -5.5t5.5 -13.5v-6zM159 606q0 -8 -5.5 -14t-13.5 -6h-6q-8 0 -14 6t-6 14v6q0 8 6 13.5t14 5.5h6q19 0 19 -19v-6zM362 14q0 -14 -14 -14h-196q-44 0 -74.5 31t-30.5 74v70 q0 43 31 74t74 31h175v87q0 37 -25.5 62.5t-61.5 25.5h-143q-15 0 -15 14v6q0 15 15 15h143q51 0 86.5 -36t35.5 -87v-353zM327 35v210h-175q-29 0 -49 -20.5t-20 -49.5v-70q0 -29 20 -49.5t49 -20.5h175z" />
<glyph unicode="&#xe5;" horiz-adv-x="443" d="M279 664q0 -35 -24 -59t-58 -24q-33 0 -57 24.5t-24 58.5q0 33 24 57t57 24q34 0 58 -23.5t24 -57.5zM362 14q0 -14 -14 -14h-196q-44 0 -74.5 31t-30.5 74v70q0 43 31 74t74 31h175v87q0 37 -25.5 62.5t-61.5 25.5h-143q-15 0 -15 14v6q0 15 15 15h143q51 0 86.5 -36 t35.5 -87v-353zM256 664q0 24 -17 40.5t-42 16.5q-24 0 -41 -16.5t-17 -40.5t17.5 -41.5t40.5 -17.5q25 0 42 17.5t17 41.5zM327 35v210h-175q-29 0 -49 -20.5t-20 -49.5v-70q0 -29 20 -49.5t49 -20.5h175z" />
<glyph unicode="&#xe6;" horiz-adv-x="760" d="M661 259q0 -14 -14 -14h-283v-123q0 -36 25.5 -61.5t61.5 -25.5h178q15 0 15 -15v-6q0 -14 -15 -14h-178q-46 0 -80 30q-2 2 -8.5 9.5t-15.5 16.5q-21 -22 -23 -24q-35 -32 -83 -32h-87q-44 0 -74.5 31t-30.5 74v70q0 43 30.5 73.5t74.5 30.5h175v88q0 37 -25.5 62.5 t-62.5 25.5h-143q-14 0 -14 14v6q0 15 14 15h143q64 0 113 -70q63 70 133 70h17q65 0 111 -46.5t46 -111.5v-73zM626 279v53q0 51 -35.5 87t-86.5 36h-17q-50 0 -86.5 -34.5t-36.5 -83.5v-58h262zM329 122v123h-175q-29 0 -49.5 -20.5t-20.5 -49.5v-70q0 -29 20.5 -49.5 t49.5 -20.5h87q37 0 62.5 25.5t25.5 61.5z" />
<glyph unicode="&#xe7;" horiz-adv-x="380" d="M339 14q0 -14 -14 -14h-178q-36 0 -62 25.5t-26 61.5v280q0 51 36 87t87 36h143q14 0 14 -15v-6q0 -14 -14 -14h-143q-36 0 -61.5 -25.5t-25.5 -62.5v-280q0 -22 15 -37t37 -15h178q14 0 14 -15v-6zM243 -32q5 -4 5 -10.5t-5 -10.5l-118 -118q-10 -10 -20 0l-1 1 q-10 10 -1 20l118 119q11 11 21 0z" />
<glyph unicode="&#xe8;" horiz-adv-x="451" d="M283 567q9 -11 -3 -20l-1 -1q-11 -9 -20 1l-108 128q-8 12 2 21l1 1q12 10 21 -2zM392 260q-2 -15 -15 -15h-283v-123q0 -36 25.5 -61.5t62.5 -25.5h178q14 0 14 -15v-6q0 -14 -14 -14h-178q-51 0 -87 36t-36 86v211q0 65 46.5 111t111.5 46h17q65 0 111.5 -46t46.5 -111 v-73zM357 280v53q0 50 -36 86t-87 36h-17q-51 0 -87 -36t-36 -86v-53h263z" />
<glyph unicode="&#xe9;" horiz-adv-x="451" d="M294 675l-107 -128q-10 -11 -20 -1l-2 1q-11 9 -2 20l108 128q4 5 10 5.5t10 -3.5l2 -1q10 -10 1 -21zM392 260q-2 -15 -15 -15h-283v-123q0 -36 25.5 -61.5t62.5 -25.5h178q14 0 14 -15v-6q0 -14 -14 -14h-178q-51 0 -87 36t-36 86v211q0 65 46.5 111t111.5 46h17 q65 0 111.5 -46t46.5 -111v-73zM357 280v53q0 50 -36 86t-87 36h-17q-51 0 -87 -36t-36 -86v-53h263z" />
<glyph unicode="&#xea;" horiz-adv-x="451" d="M322 615q10 -12 -5 -23q-12 -8 -24 6l-70 81l-69 -81q-12 -13 -25 -6q-14 11 -4 23l82 91q7 12 16 12q5 0 17 -12zM392 260q-2 -15 -15 -15h-283v-123q0 -36 25.5 -61.5t62.5 -25.5h178q14 0 14 -15v-6q0 -14 -14 -14h-178q-51 0 -87 36t-36 86v211q0 65 46.5 111 t111.5 46h17q65 0 111.5 -46t46.5 -111v-73zM357 280v53q0 50 -36 86t-87 36h-17q-51 0 -87 -36t-36 -86v-53h263z" />
<glyph unicode="&#xeb;" horiz-adv-x="451" d="M316 606q0 -8 -5.5 -14t-13.5 -6h-6q-8 0 -14 6t-6 14v6q0 8 6 13.5t14 5.5h6q8 0 13.5 -5.5t5.5 -13.5v-6zM179 606q0 -8 -5.5 -14t-13.5 -6h-6q-8 0 -14 6t-6 14v6q0 8 6 13.5t14 5.5h6q19 0 19 -19v-6zM392 260q-2 -15 -15 -15h-283v-123q0 -36 25.5 -61.5t62.5 -25.5 h178q14 0 14 -15v-6q0 -14 -14 -14h-178q-51 0 -87 36t-36 86v211q0 65 46.5 111t111.5 46h17q65 0 111.5 -46t46.5 -111v-73zM357 280v53q0 50 -36 86t-87 36h-17q-51 0 -87 -36t-36 -86v-53h263z" />
<glyph unicode="&#xec;" horiz-adv-x="185" d="M133 567q9 -11 -3 -20l-1 -1q-11 -9 -20 1l-108 128q-8 12 2 21l1 1q12 10 21 -2zM110 14q0 -14 -14 -14h-6q-15 0 -15 14v461q0 6 4.5 10.5t10.5 4.5h6q14 0 14 -15v-461z" />
<glyph unicode="&#xed;" horiz-adv-x="185" d="M184 675l-107 -128q-10 -11 -20 -1l-2 1q-11 9 -2 20l108 128q4 5 10 5.5t10 -3.5l2 -1q10 -10 1 -21zM110 14q0 -14 -14 -14h-6q-15 0 -15 14v461q0 6 4.5 10.5t10.5 4.5h6q14 0 14 -15v-461z" />
<glyph unicode="&#xee;" horiz-adv-x="185" d="M192 615q10 -12 -5 -23q-12 -8 -24 6l-70 81l-69 -81q-12 -13 -25 -6q-14 11 -4 23l82 91q7 12 16 12q5 0 17 -12zM110 14q0 -14 -14 -14h-6q-15 0 -15 14v461q0 6 4.5 10.5t10.5 4.5h6q14 0 14 -15v-461z" />
<glyph unicode="&#xef;" horiz-adv-x="185" d="M185 606q0 -8 -6 -14t-14 -6h-6q-8 0 -13.5 6t-5.5 14v6q0 19 19 19h6q8 0 14 -5.5t6 -13.5v-6zM48 606q0 -8 -6 -14t-14 -6h-6q-8 0 -13.5 6t-5.5 14v6q0 19 19 19h6q8 0 14 -5.5t6 -13.5v-6zM110 14q0 -14 -14 -14h-6q-15 0 -15 14v461q0 6 4.5 10.5t10.5 4.5h6 q14 0 14 -15v-461z" />
<glyph unicode="&#xf0;" horiz-adv-x="775" d="M715 98l-166 -165q-20 -20 -49 -20t-49 20l-383 383q-20 20 -20.5 49t20.5 50l97 97l-33 34q-10 10 0 19l13 13q9 9 19 0l33 -34l25 25q21 21 50 21t49 -21l383 -382q19 -19 23 -45t-12 -44zM678 161l-382 383q-10 10 -24 10t-24 -10l-155 -155q-10 -10 -10 -23.5 t10 -23.5l383 -383q10 -10 24 -10t24 10l154 154q10 11 10 24.5t-10 23.5zM588 194l-26 -26q-7 -7 -13 0l-9 9q-7 6 0 13l26 26q6 5 13 0l9 -9q5 -7 0 -13zM539 242l-26 -26q-6 -6 -13 0l-9 9q-5 7 0 13l27 26q6 7 13 0l8 -9q7 -6 0 -13zM491 291l-26 -26q-7 -7 -13 0l-9 8 q-7 7 0 13l26 27q7 6 13 0l9 -9q7 -7 0 -13zM636 146l-26 -26q-6 -6 -13 0l-9 8q-6 7 0 13l26 26q7 7 13 0l9 -8q7 -7 0 -13zM577 99q6 -6 0 -13l-26 -26q-7 -6 -13 0l-9 9q-7 7 0 13l26 26q7 7 13 0zM528 148q7 -7 0 -13l-26 -26q-6 -7 -13 0l-8 8q-7 7 0 13l26 27 q6 6 13 0zM480 183l-26 -26q-6 -5 -13 0l-9 9q-6 6 0 13l26 26q7 7 13 0l9 -9q7 -6 0 -13zM414 321l-98 -98q-12 -12 -29.5 -12t-29.5 12l-66 65q-12 13 -12 30t12 30l99 98q12 12 29 12t30 -12l65 -65q12 -13 12 -30t-12 -30zM432 232l-26 -26q-7 -7 -13 0l-9 8q-7 7 0 13 l26 26q6 7 13 0l9 -8q6 -7 0 -13zM164 351q-8 -7 -18 -7t-18 7q-16 18 0 36q8 7 18 7t18 -7t8 -18t-8 -18zM469 76l-26 -26q-6 -7 -13 0l-9 8q-6 7 0 13l27 26q6 7 13 0l8 -8q7 -7 0 -13zM519 38q4 -6 -1 -11l-26 -26q-7 -6 -13 0l-9 9q-7 6 0 13l26 26q6 7 13 0l9 -9 q1 -1 1 -2zM421 124l-26 -26q-7 -7 -13 0l-9 9q-7 6 0 13l26 26q7 6 13 0l9 -9q5 -7 0 -13zM373 172l-27 -26q-6 -6 -13 0l-8 9q-7 7 0 13l26 26q6 7 13 0l9 -9q6 -6 0 -13z" />
<glyph unicode="&#xf1;" horiz-adv-x="479" d="M358 637q8 -8 -1 -17q-23 -27 -62 -27q-23 0 -61 17.5t-58 17.5q-24 0 -44 -18q-10 -8 -16 -2l-4 4q-3 3 -3.5 5.5t1.5 5t3.5 4.5t5 5t4.5 4q23 20 51 20q24 0 62.5 -17.5t57.5 -17.5q23 0 42 16q11 10 17 4zM400 14q0 -14 -15 -14h-6q-14 0 -14 14v353q0 37 -25.5 62.5 t-62.5 25.5h-157v-441q0 -14 -14 -14h-7q-14 0 -14 14v461q0 15 14 15h178q51 0 87 -36t36 -87v-353z" />
<glyph unicode="&#xf2;" horiz-adv-x="451" d="M283 567q9 -11 -3 -20l-1 -1q-11 -9 -20 1l-108 128q-8 12 2 21l1 1q12 10 21 -2zM392 158q0 -66 -46.5 -112t-111.5 -46h-18q-65 0 -111 46t-46 111v176q0 65 46.5 111t111.5 46h17q65 0 111.5 -46t46.5 -111v-175zM357 157v176q0 50 -36 86t-87 36h-17q-51 0 -87 -36 t-36 -86v-176q0 -50 36 -86t87 -36h17q51 0 87 36t36 86z" />
<glyph unicode="&#xf3;" horiz-adv-x="451" d="M294 675l-107 -128q-10 -11 -20 -1l-2 1q-11 9 -2 20l108 128q4 5 10 5.5t10 -3.5l2 -1q10 -10 1 -21zM392 158q0 -66 -46.5 -112t-111.5 -46h-18q-65 0 -111 46t-46 111v176q0 65 46.5 111t111.5 46h17q65 0 111.5 -46t46.5 -111v-175zM357 157v176q0 50 -36 86t-87 36 h-17q-51 0 -87 -36t-36 -86v-176q0 -50 36 -86t87 -36h17q51 0 87 36t36 86z" />
<glyph unicode="&#xf4;" horiz-adv-x="451" d="M322 615q10 -12 -5 -23q-12 -8 -24 6l-70 81l-69 -81q-12 -13 -25 -6q-14 11 -4 23l82 91q7 12 16 12q5 0 17 -12zM392 158q0 -66 -46.5 -112t-111.5 -46h-18q-65 0 -111 46t-46 111v176q0 65 46.5 111t111.5 46h17q65 0 111.5 -46t46.5 -111v-175zM357 157v176 q0 50 -36 86t-87 36h-17q-51 0 -87 -36t-36 -86v-176q0 -50 36 -86t87 -36h17q51 0 87 36t36 86z" />
<glyph unicode="&#xf5;" horiz-adv-x="451" d="M358 637q8 -8 -1 -17q-23 -27 -62 -27q-23 0 -61 17.5t-58 17.5q-24 0 -44 -18q-10 -8 -16 -2l-4 4q-3 3 -3.5 5.5t1.5 5t3.5 4.5t5 5t4.5 4q23 20 51 20q24 0 62.5 -17.5t57.5 -17.5q23 0 42 16q11 10 17 4zM392 158q0 -66 -46.5 -112t-111.5 -46h-18q-65 0 -111 46 t-46 111v176q0 65 46.5 111t111.5 46h17q65 0 111.5 -46t46.5 -111v-175zM357 157v176q0 50 -36 86t-87 36h-17q-51 0 -87 -36t-36 -86v-176q0 -50 36 -86t87 -36h17q51 0 87 36t36 86z" />
<glyph unicode="&#xf6;" horiz-adv-x="451" d="M316 606q0 -8 -5.5 -14t-13.5 -6h-6q-8 0 -14 6t-6 14v6q0 8 6 13.5t14 5.5h6q8 0 13.5 -5.5t5.5 -13.5v-6zM179 606q0 -8 -5.5 -14t-13.5 -6h-6q-8 0 -14 6t-6 14v6q0 8 6 13.5t14 5.5h6q19 0 19 -19v-6zM392 158q0 -66 -46.5 -112t-111.5 -46h-18q-65 0 -111 46 t-46 111v176q0 65 46.5 111t111.5 46h17q65 0 111.5 -46t46.5 -111v-175zM357 157v176q0 50 -36 86t-87 36h-17q-51 0 -87 -36t-36 -86v-176q0 -50 36 -86t87 -36h17q51 0 87 36t36 86z" />
<glyph unicode="&#xf7;" horiz-adv-x="484" d="M265 392q0 -10 -6.5 -16t-16.5 -6h-8q-22 0 -22 22v8q0 10 6 16.5t16 6.5h8q10 0 16.5 -6.5t6.5 -16.5v-8zM449 242q0 -6 -4.5 -10t-9.5 -4h-386q-14 0 -14 14v6q0 14 14 14h386q5 0 9.5 -4t4.5 -10v-6zM265 98q0 -10 -6.5 -16.5t-16.5 -6.5h-8q-10 0 -16 6.5t-6 16.5v8 q0 10 6 16.5t16 6.5h8q10 0 16.5 -6.5t6.5 -16.5v-8z" />
<glyph unicode="&#xf8;" horiz-adv-x="451" d="M392 158q0 -66 -46.5 -112t-111.5 -46h-18q-41 0 -76 20l-38 -81q-2 -5 -9 -7t-11 0l-5 2q-6 2 -8 9t0 12l41 86q-51 48 -51 116v176q0 65 46.5 111t111.5 46h17q42 0 79 -21l35 74q7 13 19 6l7 -4q11 -7 6 -18l-38 -80q50 -45 50 -114v-175zM357 157v176q0 46 -31 80 l-171 -362q29 -16 62 -16h17q51 0 87 36t36 86zM298 437q-31 18 -64 18h-17q-51 0 -87 -36t-36 -86v-176q0 -47 32 -82z" />
<glyph unicode="&#xf9;" horiz-adv-x="479" d="M283 567q9 -11 -3 -20l-1 -1q-11 -9 -20 1l-108 128q-8 12 2 21l1 1q12 10 21 -2zM394 14q0 -14 -15 -14h-178q-50 0 -86 36t-36 86v353q0 15 14 15h7q14 0 14 -15v-353q0 -36 25.5 -61.5t61.5 -25.5h158v440q0 15 14 15h6q15 0 15 -15v-461z" />
<glyph unicode="&#xfa;" horiz-adv-x="479" d="M324 675l-107 -128q-10 -11 -20 -1l-2 1q-11 9 -2 20l108 128q4 5 10 5.5t10 -3.5l2 -1q10 -10 1 -21zM394 14q0 -14 -15 -14h-178q-50 0 -86 36t-36 86v353q0 15 14 15h7q14 0 14 -15v-353q0 -36 25.5 -61.5t61.5 -25.5h158v440q0 15 14 15h6q15 0 15 -15v-461z" />
<glyph unicode="&#xfb;" horiz-adv-x="479" d="M332 615q10 -12 -5 -23q-12 -8 -24 6l-70 81l-69 -81q-12 -13 -25 -6q-14 11 -4 23l82 91q7 12 16 12q5 0 17 -12zM394 14q0 -14 -15 -14h-178q-50 0 -86 36t-36 86v353q0 15 14 15h7q14 0 14 -15v-353q0 -36 25.5 -61.5t61.5 -25.5h158v440q0 15 14 15h6q15 0 15 -15 v-461z" />
<glyph unicode="&#xfc;" horiz-adv-x="479" d="M326 606q0 -8 -5.5 -14t-13.5 -6h-6q-8 0 -14 6t-6 14v6q0 8 6 13.5t14 5.5h6q8 0 13.5 -5.5t5.5 -13.5v-6zM189 606q0 -8 -5.5 -14t-13.5 -6h-6q-8 0 -14 6t-6 14v6q0 8 6 13.5t14 5.5h6q19 0 19 -19v-6zM394 14q0 -14 -15 -14h-178q-50 0 -86 36t-36 86v353q0 15 14 15 h7q14 0 14 -15v-353q0 -36 25.5 -61.5t61.5 -25.5h158v440q0 15 14 15h6q15 0 15 -15v-461z" />
<glyph unicode="&#xfd;" horiz-adv-x="358" d="M351 469l-182 -583q-11 -35 -43 -51.5t-66 -5.5l-3 1q-14 5 -10 18l2 6q5 13 18 9l3 -1q21 -7 40.5 3.5t25.5 31.5l38 130l-163 440q-5 15 8 20l5 2q15 6 19 -7l148 -414l127 412q4 13 18 9l5 -2q14 -3 10 -18zM294 675l-107 -128q-10 -11 -20 -1l-2 1q-11 9 -2 20 l108 128q4 5 10 5.5t10 -3.5l2 -1q10 -10 1 -21z" />
<glyph unicode="&#xfe;" horiz-adv-x="930" d="M883 0h-836v511h836v-511zM844 63v389l-242 -195zM804 472h-678l325 -263q5 -5 14 -5t14 5zM812 39l-241 193l-64 -51q-18 -18 -42 -18q-23 0 -41 18l-65 51l-242 -193h695zM328 258l-242 194v-388z" />
<glyph unicode="&#xff;" horiz-adv-x="358" d="M266 606q0 -8 -5.5 -14t-13.5 -6h-6q-8 0 -14 6t-6 14v6q0 8 6 13.5t14 5.5h6q8 0 13.5 -5.5t5.5 -13.5v-6zM129 606q0 -8 -5.5 -14t-13.5 -6h-6q-8 0 -14 6t-6 14v6q0 8 6 13.5t14 5.5h6q19 0 19 -19v-6zM351 469l-182 -583q-11 -35 -43 -51.5t-66 -5.5l-3 1 q-14 5 -10 18l2 6q5 13 18 9l3 -1q21 -7 40.5 3.5t25.5 31.5l38 130l-163 440q-5 15 8 20l5 2q15 6 19 -7l148 -414l127 412q4 13 18 9l5 -2q14 -3 10 -18z" />
<glyph unicode="&#x131;" horiz-adv-x="541" d="M504 318q4 -13 -1.5 -24.5t-18.5 -15.5l-100 -33l100 -33q13 -4 18.5 -15.5t1.5 -24.5l-1 -6q-5 -12 -16.5 -18t-24.5 -2l-100 32l62 -85q8 -10 5.5 -23.5t-12.5 -20.5l-5 -4q-10 -8 -23.5 -5.5t-21.5 12.5l-61 85v-105q0 -13 -9.5 -22.5t-22.5 -9.5h-6q-14 0 -23 9 t-9 23v105l-62 -85q-8 -10 -21.5 -12.5t-23.5 5.5l-5 4q-10 7 -12.5 20.5t5.5 23.5l62 85l-100 -32q-13 -4 -24.5 2t-16.5 18l-1 6q-4 13 1.5 24.5t18.5 15.5l100 33l-100 33q-13 4 -19 15.5t-1 24.5l1 6q5 12 16.5 18t24.5 2l100 -32l-62 85q-8 10 -5.5 23.5t12.5 20.5l5 4 q10 8 23.5 5.5t21.5 -12.5l62 -85v105q0 14 9 23t23 9h6q13 0 22.5 -9.5t9.5 -22.5v-105l61 85q8 10 21.5 12.5t23.5 -5.5l5 -4q10 -7 12.5 -20.5t-5.5 -23.5l-62 -85l100 32q13 4 24.5 -2t16.5 -18zM369 237v16q0 37 -26.5 63.5t-63.5 26.5h-17q-38 0 -64 -26.5t-26 -63.5 v-16q0 -37 26 -63.5t64 -26.5h17q37 0 63.5 26.5t26.5 63.5z" />
<glyph unicode="&#x141;" horiz-adv-x="477" d="M252 441l-117 -98v-308h301q14 0 14 -15v-6q0 -14 -14 -14h-322q-14 0 -14 14v299l-66 -55q-10 -10 -21 1l-3 4q-8 11 3 21l87 73v328q0 15 14 15h7q14 0 14 -15v-299l96 81q10 8 20 -2l3 -4q9 -12 -2 -20z" />
<glyph unicode="&#x142;" horiz-adv-x="217" d="M252 441l-134 -113v-241q0 -22 15.5 -37t37.5 -15h3q14 0 14 -15v-6q0 -14 -15 -14h-3q-36 0 -61.5 25.5t-25.5 61.5v212l-49 -41q-10 -10 -21 1l-3 4q-8 11 3 21l70 59v342q0 15 14 15h7q14 0 14 -15v-313l113 95q10 8 20 -2l3 -4q9 -12 -2 -20z" />
<glyph unicode="&#x152;" horiz-adv-x="876" d="M811 14q0 -6 -4.5 -10t-9.5 -4h-330q-5 0 -9.5 4t-4.5 10v71q-81 -85 -140 -85h-74q-68 0 -117 48.5t-49 116.5v370q0 68 48.5 116.5t116.5 48.5h74q64 0 140 -91v77q0 6 4.5 10t9.5 4h330q6 0 10.5 -4t4.5 -10v-6q0 -5 -4.5 -9.5t-9.5 -4.5h-320v-262h282q6 0 10.5 -4 t4.5 -10v-6q0 -6 -4.5 -10t-9.5 -4h-283v-336h319q5 0 10 -4.5t5 -9.5v-6zM444 535q0 54 -38.5 92.5t-92.5 38.5h-74q-54 0 -93 -38.5t-39 -92.5v-370q0 -54 38.5 -92.5t92.5 -38.5h74q54 0 92.5 38.5t38.5 92.5z" />
<glyph unicode="&#x153;" horiz-adv-x="749" d="M690 260q0 -15 -15 -15h-283v-123q0 -36 25.5 -61.5t62.5 -25.5h178q14 0 14 -15v-6q0 -14 -14 -14h-178q-37 0 -68 20t-45 53q-21 -34 -56.5 -53.5t-76.5 -19.5h-18q-65 0 -111 46t-46 111v176q0 65 46.5 111t111.5 46h17q45 0 82.5 -23.5t58.5 -61.5q20 38 57.5 61.5 t82.5 23.5h17q65 0 111.5 -46t46.5 -111v-73zM654 280v53q0 50 -35.5 86t-86.5 36h-17q-51 0 -87 -36t-36 -86v-53h262zM357 157v176q0 50 -36 86t-87 36h-17q-51 0 -87 -36t-36 -86v-176q0 -50 36 -86t87 -36h17q51 0 87 36t36 86z" />
<glyph unicode="&#x160;" horiz-adv-x="473" d="M420 157q0 -64 -55.5 -110.5t-136.5 -46.5h-20q-89 0 -149 57l-20 19q-9 9 0 20l4 5q9 12 21 0l21 -21q45 -45 123 -45h20q63 0 110 34.5t47 87.5q0 47 -50 90l-227 199q-64 56 -64 109q0 62 53 103.5t135 41.5h11q84 0 144 -57l20 -19q10 -8 0 -20l-4 -5q-8 -10 -20 0 l-22 21q-47 45 -118 45h-11q-64 0 -108.5 -28.5t-44.5 -81.5q0 -18 8 -34t16.5 -24t25.5 -23l227 -199q64 -57 64 -118zM138 869q-4 4 -3 11t7 11q12 10 25 -6l69 -80l70 80q12 16 24 6q6 -4 7 -11t-3 -11l-81 -92q-12 -12 -17 -12t-17 12z" />
<glyph unicode="&#x161;" horiz-adv-x="397" d="M350 91q0 -38 -37 -64.5t-85 -26.5h-71q-64 0 -100 52l-18 27q-9 10 3 20l5 3q13 7 20 -3l19 -27q26 -37 71 -37h72q28 0 57.5 17t29.5 39q0 30 -7 42t-39 37l-184 144q-41 32 -41 72q0 47 36.5 75.5t85.5 28.5h53q65 0 101 -52l18 -27q9 -10 -3 -20l-5 -3q-13 -7 -20 3 l-19 27q-26 37 -72 37h-54q-30 0 -56.5 -18t-26.5 -51q0 -13 3.5 -20.5t6 -10t16.5 -13.5l201 -160q40 -32 40 -91zM94 691q-10 12 5 23q12 8 24 -6l70 -81l69 81q12 13 25 6q14 -11 4 -23l-82 -91q-7 -12 -16 -12q-5 0 -17 12z" />
<glyph unicode="&#x178;" horiz-adv-x="454" d="M312 797q0 -8 -6 -13.5t-14 -5.5h-6q-8 0 -13.5 5.5t-5.5 13.5v6q0 8 5.5 14t13.5 6h6q8 0 14 -6t6 -14v-6zM175 797q0 -8 -5.5 -13.5t-13.5 -5.5h-6q-8 0 -14 5.5t-6 13.5v6q0 8 6 14t14 6h6q8 0 13.5 -6t5.5 -14v-6zM449 673l-204 -312v-347q0 -14 -15 -14h-6 q-14 0 -14 14v348l-205 311q-10 14 3 21l5 3q13 7 20 -3l194 -295l194 295q7 10 20 3l5 -3q13 -7 3 -21z" />
<glyph unicode="&#x17d;" horiz-adv-x="491" d="M438 14q0 -14 -14 -14h-350q-6 0 -14 5q-12 8 -5 20l336 640h-324q-14 0 -14 15v6q0 14 14 14h353q4 0 11 -5q12 -7 5 -20l-335 -640h323q14 0 14 -15v-6zM138 869q-4 4 -3 11t7 11q12 10 25 -6l69 -80l70 80q12 16 24 6q6 -4 7 -11t-3 -11l-81 -92q-12 -12 -17 -12 t-17 12z" />
<glyph unicode="&#x17e;" horiz-adv-x="399" d="M358 14q0 -14 -14 -14h-276h-3q-7 0 -16 6q-11 8 -3 21l261 428h-250q-14 0 -14 14v6q0 15 14 15h276q9 3 14 -2l5 -3q12 -7 4 -20l-263 -430h251q14 0 14 -15v-6zM94 691q-10 12 5 23q12 8 24 -6l70 -81l69 81q12 13 25 6q14 -11 4 -23l-82 -91q-7 -12 -16 -12 q-5 0 -17 12z" />
<glyph unicode="&#x192;" horiz-adv-x="499" d="M453 697q0 -14 -14 -14h-41q-38 0 -66.5 -27t-37.5 -66l-41 -176h119q15 0 15 -14v-7q0 -5 -4 -9.5t-10 -4.5h-128l-115 -505q-8 -36 -41.5 -56.5t-69.5 -12.5q-1 0 -3 0.5t-3 0.5q-14 7 -9 19q0 1 1 3l1 3q7 12 17 8q3 0 6 -2h-3q22 -5 43.5 8t26.5 36l117 498h-112 q-6 0 -10.5 4.5t-4.5 9.5v7q0 14 14 14h120l38 167q14 63 49 100t90 37h41q6 0 10.5 -4.5t4.5 -10.5v-6z" />
<glyph unicode="&#x2c6;" horiz-adv-x="342" d="M269 664q4 -4 3 -11.5t-7 -11.5q-12 -8 -24 6l-70 81l-69 -81q-12 -13 -25 -6q-6 4 -7 11.5t3 11.5l82 92q8 11 16 11q6 0 17 -11z" />
<glyph unicode="&#x2c7;" horiz-adv-x="342" d="M269 745l-81 -92q-12 -12 -17 -12q-6 0 -16 12l-82 92q-4 4 -3 11t7 11q13 9 25 -6l69 -80l70 80q12 16 24 6q6 -4 7 -11t-3 -11z" />
<glyph unicode="&#x2ca;" />
<glyph unicode="&#x2d8;" horiz-adv-x="429" d="M361 726q-3 -12 -9.5 -24t-21 -28.5t-44.5 -27t-71 -10.5t-71 10.5t-45 27t-21.5 28.5t-9.5 24q-3 10 3 17t12 7q11 0 17 -13q28 -69 115 -69q85 0 115 69q5 13 16 13q6 0 12 -7t3 -17z" />
<glyph unicode="&#x2d9;" horiz-adv-x="145" d="M95 697q0 -8 -5.5 -13.5t-13.5 -5.5h-6q-8 0 -14 5.5t-6 13.5v6q0 8 6 14t14 6h6q8 0 13.5 -6t5.5 -14v-6z" />
<glyph unicode="&#x2da;" horiz-adv-x="322" d="M243 745q0 -35 -24 -59t-58 -24q-33 0 -57.5 24.5t-24.5 58.5q0 33 24 57t57 24q35 0 59 -23.5t24 -57.5zM219 745q0 23 -16.5 40t-41.5 17q-24 0 -41 -17t-17 -40q0 -25 17 -42t41 -17q25 0 41.5 17t16.5 42z" />
<glyph unicode="&#x2db;" horiz-adv-x="501" d="M326 -150q11 -9 0 -20l-1 -1q-10 -10 -20 0l-119 118q-10 11 0 21l1 1q11 10 21 0z" />
<glyph unicode="&#x2dc;" horiz-adv-x="427" d="M338 707q7 -9 -1 -17q-24 -28 -62 -28q-23 0 -61 17.5t-58 17.5q-24 0 -44 -18q-10 -7 -16 -1l-4 4q-3 3 -3.5 5.5t1.5 5.5t3.5 4.5t5 4t4.5 3.5q22 21 51 21q24 0 62.5 -17.5t57.5 -17.5q23 0 42 16q12 9 17 4z" />
<glyph unicode="&#x2dd;" horiz-adv-x="417" d="M332 750l-108 -129q-8 -10 -19 -1l-2 1q-11 9 -2 20l108 128q8 12 20 2l2 -1q4 -3 4.5 -9.5t-3.5 -10.5zM216 750l-107 -129q-10 -10 -20 -1l-2 1q-11 9 -2 20l108 128q4 5 10 5.5t10 -3.5l2 -1q4 -3 4.5 -9.5t-3.5 -10.5z" />
<glyph unicode="&#x5b0;" horiz-adv-x="0" d="M30 -237q0 -13 -8.5 -21.5t-21.5 -8.5t-21.5 8.5t-8.5 21.5t8.5 21.5t21.5 8.5t21.5 -8.5t8.5 -21.5zM30 -116q0 -13 -8.5 -21.5t-21.5 -8.5t-21.5 8.5t-8.5 21.5t8.5 21.5t21.5 8.5t21.5 -8.5t8.5 -21.5z" />
<glyph unicode="&#x5b1;" horiz-adv-x="0" d="M-34 -237q0 -13 -8.5 -21.5t-21.5 -8.5t-21.5 8.5t-8.5 21.5t8.5 21.5t21.5 8.5t21.5 -8.5t8.5 -21.5zM-100 -116q0 -13 -8.5 -21.5t-21.5 -8.5t-21.5 8.5t-8.5 21.5t8.5 21.5t21.5 8.5t21.5 -8.5t8.5 -21.5zM32 -116q0 -13 -8.5 -21.5t-21.5 -8.5t-21.5 8.5t-8.5 21.5 t8.5 21.5t21.5 8.5t21.5 -8.5t8.5 -21.5zM158 -237q0 -13 -8.5 -21.5t-21.5 -8.5t-21.5 8.5t-8.5 21.5t8.5 21.5t21.5 8.5t21.5 -8.5t8.5 -21.5zM158 -116q0 -13 -8.5 -21.5t-21.5 -8.5t-21.5 8.5t-8.5 21.5t8.5 21.5t21.5 8.5t21.5 -8.5t8.5 -21.5z" />
<glyph unicode="&#x5b2;" horiz-adv-x="0" d="M24 -122q0 -4 -4 -4h-160q-4 0 -4 4v22q0 4 4 4h160q4 0 4 -4v-22zM144 -237q0 -13 -8.5 -21.5t-21.5 -8.5t-21.5 8.5t-8.5 21.5t8.5 21.5t21.5 8.5t21.5 -8.5t8.5 -21.5zM144 -116q0 -13 -8.5 -21.5t-21.5 -8.5t-21.5 8.5t-8.5 21.5t8.5 21.5t21.5 8.5t21.5 -8.5 t8.5 -21.5z" />
<glyph unicode="&#x5b3;" horiz-adv-x="0" d="M24 -122q0 -4 -4 -4h-67l4 -49v-79q0 -4 -3 -4h-28q-3 0 -3 4v79l4 49h-67q-4 0 -4 4v22q0 4 4 4h160q4 0 4 -4v-22zM144 -237q0 -13 -8.5 -21.5t-21.5 -8.5t-21.5 8.5t-8.5 21.5t8.5 21.5t21.5 8.5t21.5 -8.5t8.5 -21.5zM144 -116q0 -13 -8.5 -21.5t-21.5 -8.5 t-21.5 8.5t-8.5 21.5t8.5 21.5t21.5 8.5t21.5 -8.5t8.5 -21.5z" />
<glyph unicode="&#x5b4;" horiz-adv-x="0" d="M30 -116q0 -13 -8.5 -21.5t-21.5 -8.5t-21.5 8.5t-8.5 21.5t8.5 21.5t21.5 8.5t21.5 -8.5t8.5 -21.5z" />
<glyph unicode="&#x5b5;" horiz-adv-x="0" d="M-40 -116q0 -13 -8.5 -21.5t-21.5 -8.5t-21.5 8.5t-8.5 21.5t8.5 21.5t21.5 8.5t21.5 -8.5t8.5 -21.5zM100 -116q0 -13 -8.5 -21.5t-21.5 -8.5t-21.5 8.5t-8.5 21.5t8.5 21.5t21.5 8.5t21.5 -8.5t8.5 -21.5z" />
<glyph unicode="&#x5b6;" horiz-adv-x="0" d="M30 -237q0 -13 -8.5 -21.5t-21.5 -8.5t-21.5 8.5t-8.5 21.5t8.5 21.5t21.5 8.5t21.5 -8.5t8.5 -21.5zM-38 -116q0 -13 -8.5 -21.5t-21.5 -8.5t-21.5 8.5t-8.5 21.5t8.5 21.5t21.5 8.5t21.5 -8.5t8.5 -21.5zM98 -116q0 -13 -8.5 -21.5t-21.5 -8.5t-21.5 8.5t-8.5 21.5 t8.5 21.5t21.5 8.5t21.5 -8.5t8.5 -21.5z" />
<glyph unicode="&#x5b7;" horiz-adv-x="0" d="M84 -122q0 -4 -4 -4h-160q-4 0 -4 4v22q0 4 4 4h160q4 0 4 -4v-22z" />
<glyph unicode="&#x5b8;" horiz-adv-x="0" d="M84 -122q0 -4 -4 -4h-67l4 -49v-79q0 -4 -3 -4h-28q-3 0 -3 4v79l4 49h-67q-4 0 -4 4v22q0 4 4 4h160q4 0 4 -4v-22z" />
<glyph unicode="&#x5b9;" horiz-adv-x="0" d="M30 582q0 -13 -8.5 -21.5t-21.5 -8.5t-21.5 8.5t-8.5 21.5t8.5 21.5t21.5 8.5t21.5 -8.5t8.5 -21.5z" />
<glyph unicode="&#x5bb;" horiz-adv-x="0" d="M-74 -113q0 -13 -8.5 -21.5t-21.5 -8.5t-21.5 8.5t-8.5 21.5t8.5 21.5t21.5 8.5t21.5 -8.5t8.5 -21.5zM30 -175q0 -13 -8.5 -21.5t-21.5 -8.5t-21.5 8.5t-8.5 21.5t8.5 21.5t21.5 8.5t21.5 -8.5t8.5 -21.5zM134 -237q0 -13 -8.5 -21.5t-21.5 -8.5t-21.5 8.5t-8.5 21.5 t8.5 21.5t21.5 8.5t21.5 -8.5t8.5 -21.5z" />
<glyph unicode="&#x5bc;" horiz-adv-x="0" d="M30 240q0 -13 -8.5 -21.5t-21.5 -8.5t-21.5 8.5t-8.5 21.5t8.5 21.5t21.5 8.5t21.5 -8.5t8.5 -21.5z" />
<glyph unicode="&#x5bd;" />
<glyph unicode="&#x5be;" horiz-adv-x="260" d="M217 469q0 -14 -14 -14h-146q-15 0 -15 14v6q0 15 15 15h146q14 0 14 -15v-6z" />
<glyph unicode="&#x5bf;" horiz-adv-x="0" d="M82 576q0 -4 -4 -4h-156q-4 0 -4 4v22q0 4 4 4h156q4 0 4 -4v-22z" />
<glyph unicode="&#x5c1;" horiz-adv-x="0" d="M30 582q0 -13 -8.5 -21.5t-21.5 -8.5t-21.5 8.5t-8.5 21.5t8.5 21.5t21.5 8.5t21.5 -8.5t8.5 -21.5z" />
<glyph unicode="&#x5c2;" horiz-adv-x="0" d="M30 582q0 -13 -8.5 -21.5t-21.5 -8.5t-21.5 8.5t-8.5 21.5t8.5 21.5t21.5 8.5t21.5 -8.5t8.5 -21.5z" />
<glyph unicode="&#x5d0;" horiz-adv-x="433" d="M396 28q8 -12 -3 -21l-4 -3q-12 -10 -20 2l-211 310q-45 -39 -51 -79l-33 -225q-2 -14 -16 -12l-6 1q-14 3 -12 17l31 219q9 59 68 108l-80 118q-8 13 3 20l4 4q12 9 20 -3l178 -262q51 44 58 93l25 163q1 6 6 9.5t11 2.5l6 -1q14 -2 12 -16l-25 -158q-11 -77 -73 -122z " />
<glyph unicode="&#x5d1;" horiz-adv-x="403" d="M384 14q0 -14 -15 -14h-312q-14 0 -14 14v6q0 15 14 15h222v367q0 22 -15.5 37.5t-37.5 15.5h-169q-15 0 -15 14v6q0 15 15 15h169q37 0 62.5 -25.5t25.5 -62.5v-367h55q6 0 10.5 -4.5t4.5 -10.5v-6z" />
<glyph unicode="&#x5d2;" horiz-adv-x="301" d="M244 14q0 -14 -15 -14h-6q-14 0 -14 14v179h-55q-28 0 -42 -12.5t-23 -40.5l-40 -134q-1 -4 -8.5 -5.5t-15.5 2.5q-11 9 -8 20l40 130q22 75 95 75h57v227h-91q-14 0 -14 14v6q0 15 14 15h111q15 0 15 -15v-461z" />
<glyph unicode="&#x5d3;" horiz-adv-x="406" d="M378 469q0 -14 -14 -14h-60q-31 -43 -31 -88v-353q0 -14 -14 -14h-6q-15 0 -15 14v353q0 34 32 88h-228q-14 0 -14 14v6q0 15 14 15h322q14 0 14 -15v-6z" />
<glyph unicode="&#x5d4;" horiz-adv-x="425" d="M372 15q0 -15 -14 -15h-6q-15 0 -15 15l1 388q0 21 -15.5 36.5t-37.5 15.5h-213q-15 0 -15 14v7q0 14 15 14h213q36 0 61.5 -25.5t25.5 -61.5v-388zM93 14q0 -14 -15 -14h-6q-15 0 -15 14v286q0 15 15 15h6q15 0 15 -15v-286z" />
<glyph unicode="&#x5d5;" horiz-adv-x="158" d="M101 14q0 -14 -15 -14h-6q-14 0 -14 14v406q0 24 -18 39q-11 10 -2 21l3 4q10 12 21 3q31 -26 31 -67v-406z" />
<glyph unicode="&#x5d6;" horiz-adv-x="275" d="M242 469q0 -14 -14 -14h-59q-31 -43 -31 -88v-353q0 -14 -15 -14h-6q-14 0 -14 14v353q0 36 31 88h-87q-15 0 -15 14v6q0 6 4.5 10.5t10.5 4.5h181q14 0 14 -15v-6z" />
<glyph unicode="&#x5d7;" horiz-adv-x="425" d="M373 15q0 -15 -15 -15h-6q-14 0 -14 15v353q0 36 -26 61.5t-62 25.5h-157v-441q0 -14 -15 -14h-6q-14 0 -14 14v462q0 14 14 14h178q51 0 87 -36t36 -86v-353z" />
<glyph unicode="&#x5d8;" horiz-adv-x="442" d="M390 157q0 -65 -46.5 -111t-111.5 -46h-160q-15 0 -15 14v462q0 14 15 14h6q14 0 14 -14v-441h140q51 0 87 36t36 86v298h-46q-29 0 -43 -12t-23 -40l-14 -43q-5 -16 -20 -10l-4 1q-14 6 -8 23l13 40q24 76 97 76h68q15 0 15 -15v-318z" />
<glyph unicode="&#x5d9;" horiz-adv-x="143" d="M101 224q0 -14 -15 -14h-6q-14 0 -14 14v196q0 24 -18 39q-11 10 -2 21l3 4q10 12 21 3q31 -26 31 -67v-196z" />
<glyph unicode="&#x5da;" horiz-adv-x="374" d="M317 -126q0 -14 -15 -14h-6q-14 0 -14 14v528q0 22 -15.5 37.5t-36.5 15.5h-196q-15 0 -15 14v6q0 15 15 15h195q37 0 62.5 -25.5t25.5 -62.5v-528z" />
<glyph unicode="&#x5db;" horiz-adv-x="384" d="M332 157q0 -65 -46 -111t-111 -46h-126q-15 0 -15 14v6q0 6 4.5 10.5t10.5 4.5h125q51 0 87 36t36 86v245q0 22 -15.5 37.5t-36.5 15.5h-196q-15 0 -15 14v6q0 15 15 15h195q37 0 62.5 -25.5t25.5 -62.5v-245z" />
<glyph unicode="&#x5dc;" horiz-adv-x="368" d="M339 475v-20l-155 -445q-5 -14 -19 -9l-5 2q-15 4 -9 18l154 434h-266q-15 0 -15 14v146q0 6 4.5 10.5t10.5 4.5h6q6 0 10.5 -4.5t4.5 -10.5l-1 -125h266q14 0 14 -15z" />
<glyph unicode="&#x5dd;" horiz-adv-x="425" d="M372 14q0 -14 -14 -14h-286q-15 0 -15 14v461q0 15 15 15h213q36 0 61.5 -25.5t25.5 -62.5v-388zM337 35l1 368q0 21 -15.5 36.5t-37.5 15.5h-193l1 -420h244z" />
<glyph unicode="&#x5de;" horiz-adv-x="425" d="M367 14q0 -14 -14 -14h-146q-15 0 -15 14v7q0 14 15 14h125v420h-87q-40 0 -71.5 -28.5t-42.5 -72.5l-83 -345q-2 -5 -7.5 -7.5t-11.5 -0.5l-5 2q-13 5 -9 19l81 335q0 1 21 55l-59 48q-11 9 -2 20l3 5q11 11 21 2l58 -47q54 50 107 50h108q14 0 14 -15v-461z" />
<glyph unicode="&#x5df;" horiz-adv-x="125" d="M68 -126q0 -14 -15 -14h-6q-15 0 -15 14v601q0 6 4.5 10.5t10.5 4.5h6q6 0 10.5 -4.5t4.5 -10.5v-601z" />
<glyph unicode="&#x5e0;" horiz-adv-x="264" d="M212 87q0 -36 -25.5 -61.5t-62.5 -25.5h-90q-15 0 -15 14v6q0 6 4.5 10.5t10.5 4.5h90q22 0 37.5 15t15.5 37v368h-90q-15 0 -15 14v6q0 15 15 15h110q15 0 15 -15v-388z" />
<glyph unicode="&#x5e1;" horiz-adv-x="420" d="M367 157q0 -65 -46 -111t-111 -46t-111 46t-46 111v213q0 50 35.5 86t86.5 36h70q51 0 86.5 -36t35.5 -86v-213zM332 157v213q0 36 -25.5 61.5t-61.5 25.5h-70q-36 0 -62 -25.5t-26 -61.5v-213q0 -50 36 -86t87 -36t86.5 36t35.5 86z" />
<glyph unicode="&#x5e2;" horiz-adv-x="402" d="M350 475l-1 -318q0 -65 -46 -111t-111 -46h-143q-15 0 -15 14v6q0 6 4.5 10.5t10.5 4.5h79l-54 387q-3 24 -23 36q-12 7 -6 19l3 5q9 14 20 6q35 -22 41 -61l55 -392h28q51 0 86.5 36t35.5 86v318q0 15 15 15h6q15 0 15 -15z" />
<glyph unicode="&#x5e3;" horiz-adv-x="387" d="M334 -126q0 -14 -14 -14h-6q-15 0 -15 14v528q0 22 -15 37.5t-37 15.5h-193l1 -123q0 -22 15 -37t37 -15h3q14 0 14 -15v-6q0 -14 -14 -14h-3q-36 0 -62 25.5t-26 61.5v143q0 6 4.5 10.5t10.5 4.5h213q36 0 61.5 -25.5t25.5 -62.5v-528z" />
<glyph unicode="&#x5e4;" horiz-adv-x="412" d="M363 157q0 -65 -46 -111t-111 -46h-143q-15 0 -15 14v6q0 6 4.5 10.5t10.5 4.5h143q51 0 87 36t36 86v245q0 22 -15.5 37.5t-37.5 15.5h-193l1 -140q0 -22 15 -37.5t37 -15.5h3q14 0 14 -14v-6q0 -15 -14 -15h-3q-36 0 -62 26t-26 62v160q0 6 4.5 10.5t10.5 4.5h213 q36 0 61.5 -25.5t25.5 -62.5v-245z" />
<glyph unicode="&#x5e5;" horiz-adv-x="355" d="M335 472l-28 -180q-8 -53 -49 -94t-107 -41h-39l49 -279q3 -13 -11 -17l-6 -1q-15 -2 -17 12l-107 600q-2 5 1.5 10t9.5 6l6 2q15 2 17 -12l51 -286h46q45 0 79.5 28.5t41.5 71.5l29 186q2 14 16 12l6 -1q14 -3 12 -17z" />
<glyph unicode="&#x5e6;" horiz-adv-x="407" d="M354 472l-28 -180q-9 -61 -68 -109l93 -155q5 -10 0.5 -19t-12.5 -9h-287q-15 0 -15 14v6q0 6 4.5 10.5t10.5 4.5h252l-263 427q-9 14 2 21l5 4q12 8 20 -2l171 -274q46 44 52 80l28 187q3 14 17 12l6 -1q14 -3 12 -17z" />
<glyph unicode="&#x5e7;" horiz-adv-x="431" d="M403 450q-1 -1 -1 -4l-143 -436q-4 -14 -18 -9l-6 2q-13 5 -9 18l142 434h-301q-6 0 -10.5 4.5t-4.5 9.5l1 6q0 15 14 15h321q14 0 14 -15v-20v-2q1 -2 1 -3zM125 287q9 -11 -2 -20q-18 -15 -18 -40v-353q0 -14 -14 -14h-6q-15 0 -15 14v353q0 41 31 67q11 9 20 -2z" />
<glyph unicode="&#x5e8;" horiz-adv-x="383" d="M331 14q0 -14 -15 -14h-6q-14 0 -14 14v353q0 37 -25.5 62.5t-62.5 25.5h-169q-15 0 -15 14v6q0 15 15 15h169q51 0 87 -36t36 -87v-353z" />
<glyph unicode="&#x5e9;" horiz-adv-x="487" d="M458 472l-52 -337q-9 -58 -53 -96.5t-103 -38.5h-132q-13 0 -15 13l-74 459q-2 15 12 17l6 1q14 2 16 -12l40 -250h45q21 0 37.5 11t20.5 32l34 207q2 14 17 12l5 -1q6 -1 9.5 -6t2.5 -11l-33 -207q-6 -34 -33.5 -53t-66.5 -19h-33l26 -158h116q45 0 79.5 28.5t40.5 70.5 l53 344q2 14 17 12l6 -1q14 -2 12 -17z" />
<glyph unicode="&#x5ea;" horiz-adv-x="439" d="M387 14q0 -14 -15 -14h-6q-14 0 -14 14v388q0 22 -15.5 37.5t-36.5 15.5h-176l1 -368q0 -36 -26 -61.5t-62 -25.5h-3q-14 0 -14 14v6q0 15 14 15h3q22 0 37.5 15t15.5 37v368h-56q-15 0 -15 14v6q0 15 15 15h265q37 0 62.5 -25.5t25.5 -62.5v-388z" />
<glyph unicode="&#x5f3;" horiz-adv-x="149" d="M116 468l-50 -152q-6 -15 -20 -10l-3 1q-15 6 -10 20l50 152q1 6 7.5 9t12.5 1l3 -1q15 -6 10 -20z" />
<glyph unicode="&#x5f4;" horiz-adv-x="234" d="M201 468l-50 -152q-1 -6 -7.5 -9t-12.5 -1l-3 1q-15 6 -10 20l50 152q6 15 20 10l3 -1q15 -6 10 -20zM116 468l-50 -152q-6 -15 -20 -10l-3 1q-15 6 -10 20l50 152q1 6 7.5 9t12.5 1l3 -1q15 -6 10 -20z" />
<glyph unicode="&#x2000;" horiz-adv-x="459" />
<glyph unicode="&#x2001;" horiz-adv-x="919" />
<glyph unicode="&#x2002;" horiz-adv-x="459" />
<glyph unicode="&#x2003;" horiz-adv-x="919" />
<glyph unicode="&#x2004;" horiz-adv-x="306" />
<glyph unicode="&#x2005;" horiz-adv-x="229" />
<glyph unicode="&#x2006;" horiz-adv-x="153" />
<glyph unicode="&#x2007;" horiz-adv-x="153" />
<glyph unicode="&#x2008;" horiz-adv-x="114" />
<glyph unicode="&#x2009;" horiz-adv-x="183" />
<glyph unicode="&#x200a;" horiz-adv-x="51" />
<glyph unicode="&#x2010;" horiz-adv-x="320" d="M282 259q0 -14 -14 -14h-216q-15 0 -15 14v6q0 6 4.5 10.5t10.5 4.5h216q14 0 14 -15v-6z" />
<glyph unicode="&#x2011;" horiz-adv-x="320" d="M282 259q0 -14 -14 -14h-216q-15 0 -15 14v6q0 6 4.5 10.5t10.5 4.5h216q14 0 14 -15v-6z" />
<glyph unicode="&#x2012;" horiz-adv-x="320" d="M282 259q0 -14 -14 -14h-216q-15 0 -15 14v6q0 6 4.5 10.5t10.5 4.5h216q14 0 14 -15v-6z" />
<glyph unicode="&#x2013;" horiz-adv-x="480" d="M447 242q0 -14 -14 -14h-385q-15 0 -15 14v6q0 14 15 14h385q14 0 14 -14v-6z" />
<glyph unicode="&#x2014;" horiz-adv-x="708" d="M675 242q0 -6 -4.5 -10t-9.5 -4h-614q-5 0 -9.5 4t-4.5 10v6q0 6 4.5 10t9.5 4h614q5 0 9.5 -4t4.5 -10v-6z" />
<glyph unicode="&#x2018;" horiz-adv-x="236" d="M165 679l-61 -156q-5 -12 -19 -9l-5 2q-14 5 -9 19l61 156q5 13 18 9l6 -2q14 -5 9 -19z" />
<glyph unicode="&#x2019;" horiz-adv-x="236" d="M165 679l-61 -156q-5 -12 -19 -9l-5 2q-14 5 -9 19l61 156q5 13 18 9l6 -2q14 -5 9 -19z" />
<glyph unicode="&#x201a;" horiz-adv-x="236" d="M165 50l-61 -156q-5 -14 -19 -9l-5 2q-15 4 -9 18l61 156q5 13 18 9l6 -2q5 -2 8 -7.5t1 -10.5z" />
<glyph unicode="&#x201c;" horiz-adv-x="320" d="M249 679l-60 -156q-6 -14 -19 -9l-6 2q-5 2 -7.5 7.5t-0.5 11.5l60 156q6 14 19 9l6 -2q5 -2 7.5 -7.5t0.5 -11.5zM165 679l-61 -156q-5 -12 -19 -9l-5 2q-14 5 -9 19l61 156q5 13 18 9l6 -2q14 -5 9 -19z" />
<glyph unicode="&#x201d;" horiz-adv-x="320" d="M249 679l-60 -156q-6 -14 -19 -9l-6 2q-5 2 -7.5 7.5t-0.5 11.5l60 156q6 14 19 9l6 -2q5 -2 7.5 -7.5t0.5 -11.5zM165 679l-61 -156q-5 -12 -19 -9l-5 2q-14 5 -9 19l61 156q5 13 18 9l6 -2q14 -5 9 -19z" />
<glyph unicode="&#x201e;" horiz-adv-x="320" d="M249 51l-60 -156q-5 -14 -19 -9l-6 2q-5 1 -7.5 7t-0.5 11l60 156q5 14 19 9l6 -2q5 -1 7.5 -7t0.5 -11zM165 51l-61 -156q-5 -14 -19 -9l-5 2q-15 4 -9 18l61 156q5 13 18 9l6 -2q14 -5 9 -18z" />
<glyph unicode="&#x2020;" horiz-adv-x="570" d="M458 469q0 -14 -15 -14h-160v-440q0 -15 -14 -15h-7q-14 0 -14 15v440h-161q-14 0 -14 14v7q0 14 14 14h161v196q0 14 14 14h7q14 0 14 -14v-196h160q15 0 15 -14v-7z" />
<glyph unicode="&#x2021;" horiz-adv-x="545" d="M480 14q0 -5 -4.5 -9.5t-9.5 -4.5h-176v-176q0 -5 -4 -9.5t-10 -4.5h-6q-6 0 -10 4.5t-4 9.5v176h-176q-6 0 -10.5 4.5t-4.5 9.5v7q0 5 4 9.5t10 4.5h177v420h-176q-6 0 -10.5 4.5t-4.5 9.5v7q0 5 4 9.5t10 4.5h176v213q0 15 14 15h6q14 0 14 -15v-213h176q5 0 10 -4.5 t5 -9.5v-7q0 -5 -4.5 -9.5t-9.5 -4.5h-177v-420h176q5 0 10 -4.5t5 -9.5v-7z" />
<glyph unicode="&#x2022;" horiz-adv-x="565" d="M430 321q0 -70 -49.5 -119.5t-119.5 -49.5h-10q-70 0 -120 49.5t-50 119.5t49.5 119.5t119.5 49.5h10q70 0 120 -49.5t50 -119.5z" />
<glyph unicode="&#x2026;" horiz-adv-x="428" d="M376 28q0 -11 -8.5 -19.5t-19.5 -8.5h-7q-12 0 -20.5 8.5t-8.5 19.5v7q0 12 8.5 20t19.5 8h8q11 0 19.5 -8t8.5 -19v-8zM246 28q0 -11 -8.5 -19.5t-19.5 -8.5h-7q-12 0 -20.5 8.5t-8.5 19.5v7q0 12 8.5 20t19.5 8h8q11 0 19.5 -8t8.5 -19v-8zM116 28q0 -11 -8.5 -19.5 t-19.5 -8.5h-7q-12 0 -20.5 8.5t-8.5 19.5v7q0 12 8.5 20t19.5 8h8q11 0 19.5 -8t8.5 -19v-8z" />
<glyph unicode="&#x202f;" horiz-adv-x="183" />
<glyph unicode="&#x2030;" horiz-adv-x="620" d="M174 359q0 -24 -17 -41t-41 -17t-41 17t-17 41v73q0 24 17 41t41 17t41 -17t17 -41v-73zM401 58q0 -24 -17 -41t-41 -17t-41 17t-17 41v73q0 24 17 41t41 17t41 -17t17 -41v-73zM148 357v77q0 13 -9.5 22t-22.5 9t-22.5 -9t-9.5 -22v-77q0 -13 9.5 -22.5t22.5 -9.5 t22.5 9.5t9.5 22.5zM375 56v77q0 13 -9.5 22.5t-22.5 9.5t-22.5 -9.5t-9.5 -22.5v-77q0 -13 9.5 -22t22.5 -9t22.5 9t9.5 22zM344 468l-184 -460q-5 -12 -19 -8l-6 2q-12 5 -8 18l184 460q5 14 19 9l7 -3q12 -6 7 -18zM557 58q0 -24 -17 -41t-41 -17t-41 17t-17 41v73 q0 24 17 41t41 17t41 -17t17 -41v-73zM531 56v77q0 13 -9.5 22.5t-22.5 9.5t-22.5 -9.5t-9.5 -22.5v-77q0 -13 9.5 -22t22.5 -9t22.5 9t9.5 22z" />
<glyph unicode="&#x2039;" horiz-adv-x="288" d="M213 435q9 -9 -1 -21l-146 -146l145 -145q12 -10 1 -21q-10 -10 -20 1l-155 155q-11 10 0 21l155 155q10 10 21 1z" />
<glyph unicode="&#x203a;" horiz-adv-x="288" d="M251 258l-155 -155q-10 -10 -21 -1q-10 10 1 21l146 145l-146 146q-10 12 -1 21q10 10 21 -1l154 -155q12 -10 1 -21z" />
<glyph unicode="&#x205f;" horiz-adv-x="229" />
<glyph unicode="&#x20aa;" horiz-adv-x="620" d="M563 154q0 -64 -45 -109t-109 -45h-74q-50 0 -86 36t-36 86v196q0 14 14 14h6q15 0 15 -14v-196q0 -36 25.5 -61.5t61.5 -25.5h74q49 0 84 35t35 84v321q0 15 14 15h6q15 0 15 -15v-321zM403 172q0 -15 -14 -15h-6q-6 0 -10.5 4.5t-4.5 10.5v195q0 37 -25.5 62.5 t-61.5 25.5h-188v-441q0 -14 -15 -14h-6q-15 0 -15 14v461q0 15 15 15h209q51 0 86.5 -36t35.5 -87v-195z" />
<glyph unicode="&#x20ac;" horiz-adv-x="587" d="M524 525q1 -4 -4.5 -8t-10.5 -4h-7q-11 0 -13 13q-8 61 -56.5 100t-113.5 39q-71 0 -122 -51t-51 -121v-41h227q14 0 14 -14v-6q0 -14 -14 -14h-227v-118h227q14 0 14 -14v-6q0 -14 -14 -14h-227v-59q0 -71 51 -121.5t121 -50.5q63 0 112.5 37.5t57.5 95.5q3 18 14 18h7 q5 0 10 -7t4 -14q-12 -66 -70.5 -115.5t-133.5 -49.5q-86 0 -147 60.5t-61 146.5v59h-57q-15 0 -15 14v6q0 14 15 14h57v118h-57q-15 0 -15 14v6q0 14 15 14h57v41q0 86 60.5 146.5t146.5 60.5q76 0 135 -50t71 -125z" />
<glyph unicode="&#x2122;" horiz-adv-x="732" d="M657 383q0 -11 -11 -11h-4q-11 0 -11 11v261l-98 -158l-3 -4q-2 -4 -5 -6.5t-7 -2.5t-7 2.5t-5 6.5l-3 4l-98 158v-261q0 -11 -11 -11h-4q-11 0 -11 11v306q0 11 11 11h3q7 0 12 -9l97 -155l15 -26l18 26l96 155q5 9 11 9h4q11 0 11 -11v-306zM316 685q0 -10 -10 -10 h-116v-292q0 -11 -10 -11h-4q-11 0 -11 11v292h-115q-11 0 -11 10v4q0 11 11 11h256q10 0 10 -11v-4z" />
<glyph unicode="&#x2212;" horiz-adv-x="500" d="M442 259q0 -14 -14 -14h-356q-15 0 -15 14v6q0 6 4.5 10.5t10.5 4.5h356q14 0 14 -15v-6z" />
<glyph unicode="&#xe000;" horiz-adv-x="490" d="M0 490h490v-490h-490v490z" />
<glyph unicode="&#xe802;" horiz-adv-x="374" d="M317 -126q0 -14 -15 -14h-6q-14 0 -14 14v528q0 22 -15.5 37.5t-36.5 15.5h-196q-15 0 -15 14v6q0 15 15 15h195q37 0 62.5 -25.5t25.5 -62.5v-528zM160 133q0 13 -8.5 21.5t-21.5 8.5t-21.5 -8.5t-8.5 -21.5t8.5 -21.5t21.5 -8.5t21.5 8.5t8.5 21.5zM160 254 q0 13 -8.5 21.5t-21.5 8.5t-21.5 -8.5t-8.5 -21.5t8.5 -21.5t21.5 -8.5t21.5 8.5t8.5 21.5z" />
<glyph unicode="&#xe803;" horiz-adv-x="374" d="M317 -126q0 -14 -15 -14h-6q-14 0 -14 14v528q0 22 -15.5 37.5t-36.5 15.5h-196q-15 0 -15 14v6q0 15 15 15h195q37 0 62.5 -25.5t25.5 -62.5v-528zM214 218v22q0 4 -4 4h-160q-4 0 -4 -4v-22q0 -4 4 -4h63v-128q0 -4 3 -4h28q3 0 3 4v128h63q4 0 4 4z" />
<glyph unicode="&#xe804;" horiz-adv-x="368" d="M339 475v-20l-155 -445q-5 -14 -19 -9l-5 2q-15 4 -9 18l154 434h-266q-15 0 -15 14v146q0 6 4.5 10.5t10.5 4.5h6q6 0 10.5 -4.5t4.5 -10.5l-1 -125h266q14 0 14 -15zM-20 582q0 13 -8.5 21.5t-21.5 8.5t-21.5 -8.5t-8.5 -21.5t8.5 -21.5t21.5 -8.5t21.5 8.5t8.5 21.5z " />
<glyph unicode="&#xe805;" horiz-adv-x="368" d="M339 475v-20l-155 -445q-5 -14 -19 -9l-5 2q-15 4 -9 18l154 434h-266q-15 0 -15 14v146q0 6 4.5 10.5t10.5 4.5h6q6 0 10.5 -4.5t4.5 -10.5l-1 -125h266q14 0 14 -15zM-20 582q0 13 -8.5 21.5t-21.5 8.5t-21.5 -8.5t-8.5 -21.5t8.5 -21.5t21.5 -8.5t21.5 8.5t8.5 21.5z M150 260q0 13 -8.5 21.5t-21.5 8.5t-21.5 -8.5t-8.5 -21.5t8.5 -21.5t21.5 -8.5t21.5 8.5t8.5 21.5z" />
<glyph unicode="&#xfb01;" horiz-adv-x="513" d="M438 693q0 -7 -5 -12.5t-13 -5.5h-7q-8 0 -13.5 5.5t-5.5 12.5v7q0 8 5 13t13 5h7q8 0 13.5 -5.5t5.5 -12.5v-7zM434 14q0 -5 -4 -9.5t-10 -4.5h-6q-6 0 -10 4.5t-4 9.5v441h-250v-441q0 -5 -4 -9.5t-10 -4.5h-6q-6 0 -10 4.5t-4 9.5v441h-62q-6 0 -10.5 4.5t-4.5 9.5v7 q0 5 4 9.5t10 4.5h62v96q0 55 38 93.5t93 38.5h23q5 0 10 -4.5t5 -10.5v-6q0 -6 -4.5 -10t-9.5 -4h-23q-41 0 -69.5 -28t-28.5 -69v-96h270q6 0 10 -4.5t4 -9.5v-462h1z" />
<glyph unicode="&#xfb02;" horiz-adv-x="537" d="M512 14q0 -5 -4.5 -9.5t-9.5 -4.5q-41 0 -69 27t-28 66v590h-153q-41 0 -69.5 -28t-28.5 -69v-96h119q6 0 10 -4.5t4 -9.5v-7q0 -14 -13 -14h-119v-441q0 -5 -4 -9.5t-10 -4.5h-7q-5 0 -9.5 4.5t-4.5 9.5v441h-61q-6 0 -11 4.5t-5 9.5v7q0 5 4.5 9.5t10.5 4.5h61v96 q0 55 38.5 93.5t93.5 38.5h174q14 0 14 -15v-610q0 -23 17.5 -40.5t41.5 -17.5q7 0 12.5 -4.5t5.5 -9.5v-7z" />
<glyph unicode="&#xfb1f;" />
<glyph unicode="&#xfb2a;" horiz-adv-x="487" d="M458 472l-52 -337q-9 -58 -53 -96.5t-103 -38.5h-132q-13 0 -15 13l-74 459q-2 15 12 17l6 1q14 2 16 -12l40 -250h45q21 0 37.5 11t20.5 32l34 207q2 14 17 12l5 -1q6 -1 9.5 -6t2.5 -11l-33 -207q-6 -34 -33.5 -53t-66.5 -19h-33l26 -158h116q45 0 79.5 28.5t40.5 70.5 l53 344q2 14 17 12l6 -1q14 -2 12 -17zM471 582q0 -13 -8.5 -21.5t-21.5 -8.5t-21.5 8.5t-8.5 21.5t8.5 21.5t21.5 8.5t21.5 -8.5t8.5 -21.5z" />
<glyph unicode="&#xfb2b;" horiz-adv-x="487" d="M458 472l-52 -337q-9 -58 -53 -96.5t-103 -38.5h-132q-13 0 -15 13l-74 459q-2 15 12 17l6 1q14 2 16 -12l40 -250h45q21 0 37.5 11t20.5 32l34 207q2 14 17 12l5 -1q6 -1 9.5 -6t2.5 -11l-33 -207q-6 -34 -33.5 -53t-66.5 -19h-33l26 -158h116q45 0 79.5 28.5t40.5 70.5 l53 344q2 14 17 12l6 -1q14 -2 12 -17zM73 582q0 -13 -8.5 -21.5t-21.5 -8.5t-21.5 8.5t-8.5 21.5t8.5 21.5t21.5 8.5t21.5 -8.5t8.5 -21.5z" />
<glyph unicode="&#xfb2c;" horiz-adv-x="487" d="M458 472l-52 -337q-9 -58 -53 -96.5t-103 -38.5h-132q-13 0 -15 13l-74 459q-2 15 12 17l6 1q14 2 16 -12l40 -250h45q21 0 37.5 11t20.5 32l34 207q2 14 17 12l5 -1q6 -1 9.5 -6t2.5 -11l-33 -207q-6 -34 -33.5 -53t-66.5 -19h-33l26 -158h116q45 0 79.5 28.5t40.5 70.5 l53 344q2 14 17 12l6 -1q14 -2 12 -17zM471 582q0 -13 -8.5 -21.5t-21.5 -8.5t-21.5 8.5t-8.5 21.5t8.5 21.5t21.5 8.5t21.5 -8.5t8.5 -21.5zM342 240q0 -13 -8.5 -21.5t-21.5 -8.5t-21.5 8.5t-8.5 21.5t8.5 21.5t21.5 8.5t21.5 -8.5t8.5 -21.5z" />
<glyph unicode="&#xfb2d;" horiz-adv-x="487" d="M458 472l-52 -337q-9 -58 -53 -96.5t-103 -38.5h-132q-13 0 -15 13l-74 459q-2 15 12 17l6 1q14 2 16 -12l40 -250h45q21 0 37.5 11t20.5 32l34 207q2 14 17 12l5 -1q6 -1 9.5 -6t2.5 -11l-33 -207q-6 -34 -33.5 -53t-66.5 -19h-33l26 -158h116q45 0 79.5 28.5t40.5 70.5 l53 344q2 14 17 12l6 -1q14 -2 12 -17zM73 582q0 -13 -8.5 -21.5t-21.5 -8.5t-21.5 8.5t-8.5 21.5t8.5 21.5t21.5 8.5t21.5 -8.5t8.5 -21.5zM342 240q0 -13 -8.5 -21.5t-21.5 -8.5t-21.5 8.5t-8.5 21.5t8.5 21.5t21.5 8.5t21.5 -8.5t8.5 -21.5z" />
<glyph unicode="&#xfb31;" horiz-adv-x="403" d="M384 14q0 -14 -15 -14h-312q-14 0 -14 14v6q0 15 14 15h222v367q0 22 -15.5 37.5t-37.5 15.5h-169q-15 0 -15 14v6q0 15 15 15h169q37 0 62.5 -25.5t25.5 -62.5v-367h55q6 0 10.5 -4.5t4.5 -10.5v-6zM200 250q0 13 -8.5 21.5t-21.5 8.5t-21.5 -8.5t-8.5 -21.5t8.5 -21.5 t21.5 -8.5t21.5 8.5t8.5 21.5z" />
<glyph unicode="&#xfb32;" horiz-adv-x="301" d="M244 14q0 -14 -15 -14h-6q-14 0 -14 14v179h-55q-28 0 -42 -12.5t-23 -40.5l-40 -134q-1 -4 -8.5 -5.5t-15.5 2.5q-11 9 -8 20l40 130q22 75 95 75h57v227h-91q-14 0 -14 14v6q0 15 14 15h111q15 0 15 -15v-461zM181 304q0 13 -8.5 21.5t-21.5 8.5t-21.5 -8.5t-8.5 -21.5 t8.5 -21.5t21.5 -8.5t21.5 8.5t8.5 21.5z" />
<glyph unicode="&#xfb33;" horiz-adv-x="406" d="M378 469q0 -14 -14 -14h-60q-31 -43 -31 -88v-353q0 -14 -14 -14h-6q-15 0 -15 14v353q0 34 32 88h-228q-14 0 -14 14v6q0 15 14 15h322q14 0 14 -15v-6zM150 240q0 13 -8.5 21.5t-21.5 8.5t-21.5 -8.5t-8.5 -21.5t8.5 -21.5t21.5 -8.5t21.5 8.5t8.5 21.5z" />
<glyph unicode="&#xfb34;" horiz-adv-x="425" d="M372 15q0 -15 -14 -15h-6q-15 0 -15 15l1 388q0 21 -15.5 36.5t-37.5 15.5h-213q-15 0 -15 14v7q0 14 15 14h213q36 0 61.5 -25.5t25.5 -61.5v-388zM93 14q0 -14 -15 -14h-6q-15 0 -15 14v286q0 15 15 15h6q15 0 15 -15v-286zM242 240q0 13 -8.5 21.5t-21.5 8.5 t-21.5 -8.5t-8.5 -21.5t8.5 -21.5t21.5 -8.5t21.5 8.5t8.5 21.5z" />
<glyph unicode="&#xfb35;" horiz-adv-x="158" d="M101 14q0 -14 -15 -14h-6q-14 0 -14 14v406q0 24 -18 39q-11 10 -2 21l3 4q10 12 21 3q31 -26 31 -67v-406zM44 240q0 13 -8.5 21.5t-21.5 8.5t-21.5 -8.5t-8.5 -21.5t8.5 -21.5t21.5 -8.5t21.5 8.5t8.5 21.5z" />
<glyph unicode="&#xfb36;" horiz-adv-x="275" d="M242 469q0 -14 -14 -14h-59q-31 -43 -31 -88v-353q0 -14 -15 -14h-6q-14 0 -14 14v353q0 36 31 88h-87q-15 0 -15 14v6q0 6 4.5 10.5t10.5 4.5h181q14 0 14 -15v-6zM76 240q0 13 -8.5 21.5t-21.5 8.5t-21.5 -8.5t-8.5 -21.5t8.5 -21.5t21.5 -8.5t21.5 8.5t8.5 21.5z" />
<glyph unicode="&#xfb38;" horiz-adv-x="442" d="M390 157q0 -65 -46.5 -111t-111.5 -46h-160q-15 0 -15 14v462q0 14 15 14h6q14 0 14 -14v-441h140q51 0 87 36t36 86v298h-46q-29 0 -43 -12t-23 -40l-14 -43q-5 -16 -20 -10l-4 1q-14 6 -8 23l13 40q24 76 97 76h68q15 0 15 -15v-318zM247 240q0 13 -8.5 21.5t-21.5 8.5 t-21.5 -8.5t-8.5 -21.5t8.5 -21.5t21.5 -8.5t21.5 8.5t8.5 21.5z" />
<glyph unicode="&#xfb39;" horiz-adv-x="143" d="M101 224q0 -14 -15 -14h-6q-14 0 -14 14v196q0 24 -18 39q-11 10 -2 21l3 4q10 12 21 3q31 -26 31 -67v-196zM30 303q0 13 -8.5 21.5t-21.5 8.5t-21.5 -8.5t-8.5 -21.5t8.5 -21.5t21.5 -8.5t21.5 8.5t8.5 21.5z" />
<glyph unicode="&#xfb3a;" horiz-adv-x="374" d="M317 -126q0 -14 -15 -14h-6q-14 0 -14 14v528q0 22 -15.5 37.5t-36.5 15.5h-196q-15 0 -15 14v6q0 15 15 15h195q37 0 62.5 -25.5t25.5 -62.5v-528zM150 240q0 13 -8.5 21.5t-21.5 8.5t-21.5 -8.5t-8.5 -21.5t8.5 -21.5t21.5 -8.5t21.5 8.5t8.5 21.5z" />
<glyph unicode="&#xfb3b;" horiz-adv-x="384" d="M332 157q0 -65 -46 -111t-111 -46h-126q-15 0 -15 14v6q0 6 4.5 10.5t10.5 4.5h125q51 0 87 36t36 86v245q0 22 -15.5 37.5t-36.5 15.5h-196q-15 0 -15 14v6q0 15 15 15h195q37 0 62.5 -25.5t25.5 -62.5v-245zM183 240q0 13 -8.5 21.5t-21.5 8.5t-21.5 -8.5t-8.5 -21.5 t8.5 -21.5t21.5 -8.5t21.5 8.5t8.5 21.5z" />
<glyph unicode="&#xfb3c;" horiz-adv-x="368" d="M339 475v-20l-155 -445q-5 -14 -19 -9l-5 2q-15 4 -9 18l154 434h-266q-15 0 -15 14v146q0 6 4.5 10.5t10.5 4.5h6q6 0 10.5 -4.5t4.5 -10.5l-1 -125h266q14 0 14 -15zM150 240q0 13 -8.5 21.5t-21.5 8.5t-21.5 -8.5t-8.5 -21.5t8.5 -21.5t21.5 -8.5t21.5 8.5t8.5 21.5z " />
<glyph unicode="&#xfb3e;" horiz-adv-x="425" d="M367 14q0 -14 -14 -14h-146q-15 0 -15 14v7q0 14 15 14h125v420h-87q-40 0 -71.5 -28.5t-42.5 -72.5l-83 -345q-2 -5 -7.5 -7.5t-11.5 -0.5l-5 2q-13 5 -9 19l81 335q0 1 21 55l-59 48q-11 9 -2 20l3 5q11 11 21 2l58 -47q54 50 107 50h108q14 0 14 -15v-461zM259 240 q0 13 -8.5 21.5t-21.5 8.5t-21.5 -8.5t-8.5 -21.5t8.5 -21.5t21.5 -8.5t21.5 8.5t8.5 21.5z" />
<glyph unicode="&#xfb40;" horiz-adv-x="264" d="M212 87q0 -36 -25.5 -61.5t-62.5 -25.5h-90q-15 0 -15 14v6q0 6 4.5 10.5t10.5 4.5h90q22 0 37.5 15t15.5 37v368h-90q-15 0 -15 14v6q0 15 15 15h110q15 0 15 -15v-388zM118 240q0 13 -8.5 21.5t-21.5 8.5t-21.5 -8.5t-8.5 -21.5t8.5 -21.5t21.5 -8.5t21.5 8.5t8.5 21.5 z" />
<glyph unicode="&#xfb41;" horiz-adv-x="420" d="M367 157q0 -65 -46 -111t-111 -46t-111 46t-46 111v213q0 50 35.5 86t86.5 36h70q51 0 86.5 -36t35.5 -86v-213zM332 157v213q0 36 -25.5 61.5t-61.5 25.5h-70q-36 0 -62 -25.5t-26 -61.5v-213q0 -50 36 -86t87 -36t86.5 36t35.5 86zM241 240q0 13 -8.5 21.5t-21.5 8.5 t-21.5 -8.5t-8.5 -21.5t8.5 -21.5t21.5 -8.5t21.5 8.5t8.5 21.5z" />
<glyph unicode="&#xfb44;" horiz-adv-x="412" d="M363 157q0 -65 -46 -111t-111 -46h-143q-15 0 -15 14v6q0 6 4.5 10.5t10.5 4.5h143q51 0 87 36t36 86v245q0 22 -15.5 37.5t-37.5 15.5h-193l1 -140q0 -22 15 -37.5t37 -15.5h3q14 0 14 -14v-6q0 -15 -14 -15h-3q-36 0 -62 26t-26 62v160q0 6 4.5 10.5t10.5 4.5h213 q36 0 61.5 -25.5t25.5 -62.5v-245zM264 240q0 13 -8.5 21.5t-21.5 8.5t-21.5 -8.5t-8.5 -21.5t8.5 -21.5t21.5 -8.5t21.5 8.5t8.5 21.5z" />
<glyph unicode="&#xfb46;" horiz-adv-x="407" d="M354 472l-28 -180q-9 -61 -68 -109l93 -155q5 -10 0.5 -19t-12.5 -9h-287q-15 0 -15 14v6q0 6 4.5 10.5t10.5 4.5h252l-263 427q-9 14 2 21l5 4q12 8 20 -2l171 -274q46 44 52 80l28 187q3 14 17 12l6 -1q14 -3 12 -17zM101 240q0 13 -8.5 21.5t-21.5 8.5t-21.5 -8.5 t-8.5 -21.5t8.5 -21.5t21.5 -8.5t21.5 8.5t8.5 21.5z" />
<glyph unicode="&#xfb47;" horiz-adv-x="431" d="M403 450q-1 -1 -1 -4l-143 -436q-4 -14 -18 -9l-6 2q-13 5 -9 18l142 434h-301q-6 0 -10.5 4.5t-4.5 9.5l1 6q0 15 14 15h321q14 0 14 -15v-20v-2q1 -2 1 -3zM125 287q9 -11 -2 -20q-18 -15 -18 -40v-353q0 -14 -14 -14h-6q-15 0 -15 14v353q0 41 31 67q11 9 20 -2z M238 240q0 13 -8.5 21.5t-21.5 8.5t-21.5 -8.5t-8.5 -21.5t8.5 -21.5t21.5 -8.5t21.5 8.5t8.5 21.5z" />
<glyph unicode="&#xfb49;" horiz-adv-x="487" d="M458 472l-52 -337q-9 -58 -53 -96.5t-103 -38.5h-132q-13 0 -15 13l-74 459q-2 15 12 17l6 1q14 2 16 -12l40 -250h45q21 0 37.5 11t20.5 32l34 207q2 14 17 12l5 -1q6 -1 9.5 -6t2.5 -11l-33 -207q-6 -34 -33.5 -53t-66.5 -19h-33l26 -158h116q45 0 79.5 28.5t40.5 70.5 l53 344q2 14 17 12l6 -1q14 -2 12 -17zM341 240q0 13 -8.5 21.5t-21.5 8.5t-21.5 -8.5t-8.5 -21.5t8.5 -21.5t21.5 -8.5t21.5 8.5t8.5 21.5z" />
<glyph unicode="&#xfb4a;" horiz-adv-x="439" d="M387 14q0 -14 -15 -14h-6q-14 0 -14 14v388q0 22 -15.5 37.5t-36.5 15.5h-176l1 -368q0 -36 -26 -61.5t-62 -25.5h-3q-14 0 -14 14v6q0 15 14 15h3q22 0 37.5 15t15.5 37v368h-56q-15 0 -15 14v6q0 15 15 15h265q37 0 62.5 -25.5t25.5 -62.5v-388zM262 240 q0 13 -8.5 21.5t-21.5 8.5t-21.5 -8.5t-8.5 -21.5t8.5 -21.5t21.5 -8.5t21.5 8.5t8.5 21.5z" />
<glyph unicode="&#xfb4b;" horiz-adv-x="158" d="M101 14q0 -14 -15 -14h-6q-14 0 -14 14v406q0 24 -18 39q-11 10 -2 21l3 4q10 12 21 3q31 -26 31 -67v-406zM80 562q0 -13 -8.5 -21.5t-21.5 -8.5t-21.5 8.5t-8.5 21.5t8.5 21.5t21.5 8.5t21.5 -8.5t8.5 -21.5z" />
<glyph horiz-adv-x="0" />
<glyph horiz-adv-x="259" />
<glyph />
<glyph />
<glyph />
<glyph />
<glyph />
<glyph />
<glyph />
<glyph />
<glyph />
<glyph horiz-adv-x="259" />
<glyph />
<glyph />
<glyph />
<glyph horiz-adv-x="259" />
<glyph />
<glyph />
<glyph />
<glyph />
<glyph />
<glyph />
<glyph />
<glyph />
<glyph />
<glyph />
<glyph />
<glyph />
<glyph />
<glyph />
<glyph />
<glyph />
<glyph />
<glyph />
<glyph />
<glyph />
<glyph />
<glyph />
<glyph />
<glyph />
<glyph />
<glyph />
<glyph />
<glyph />
<glyph />
<glyph />
<glyph />
<glyph />
<glyph />
<glyph />
<glyph />
<glyph />
<glyph />
<glyph />
<glyph />
<glyph />
<glyph />
<glyph />
<glyph />
<glyph />
<glyph />
<glyph />
<glyph />
<glyph />
<glyph />
<glyph />
<glyph />
<glyph horiz-adv-x="560" d="M329 19q0 13 -12 13t-12 -13q0 -14 12 -14t12 14zM104 -8h-8v30q0 3 -1 5t-3 3h-1h-14v-7h8v-8h-15v23h22q12 -4 12 -15v-31zM149 0h-38v30h-4v8h12v-31h22v15l-2 6l-9 -9l-6 5l14 14q11 -4 11 -15v-23zM175 0h-19v7h12v23h-8v8h15v-38zM197 0h-7v30h-8v8h15v-38zM239 23 v-23h-34v7h26v14l-5 9h-14v-7h8v-8h-15v23h22q12 -4 12 -15zM254 -8h-4v53h4v-53zM295 30h-23v-7h19v-8h-18v-15h-8v38h30v-8zM336 19q0 -8 -5.5 -14t-13.5 -6t-13.5 6t-5.5 14t5.5 13.5t13.5 5.5t13.5 -5.5t5.5 -13.5zM377 0h-7l-19 26v-26h-7v38h7l19 -27v27h7v-38z M417 30h-13v-30h-8v30h-13v8h34v-8zM452 0h-30v38h31v-8h-23v-7h19v-8h-19v-7h22v-8zM490 30h-23v-7h20v-8h-19v-15h-8v38h30v-8zM490 187l-47 -66l-289 -14l-37 -10l-19 -18l-28 9l28 75l56 64l308 16l-37 185l-56 61l-168 19l-15 -56l5 -28l47 -19h47l37 10l19 -112 l-84 -28l-56 19l-56 -10l-19 -19h-13l-15 19l28 29l28 8l-37 56l18 84l38 56l-47 28l-9 28l28 122l28 -10l9 -28l37 -18l174 -19l54 -56l43 -149v-228z" />
</font>
</defs>
</svg>
